<?xml version="1.0" encoding="utf-8"?>
<!-- Generator: Adobe Illustrator 25.4.1, SVG Export Plug-In . SVG Version: 6.00 Build 0)  -->
<svg version="1.1" id="Livello_1" xmlns="http://www.w3.org/2000/svg" xmlns:xlink="http://www.w3.org/1999/xlink" x="0px" y="0px"
	 viewBox="0 0 185 32" style="enable-background:new 0 0 185 32;" xml:space="preserve">
<style type="text/css">
	.st0{fill:#6C757D;}
	.st1{fill:#FCC00E;}
</style>
<path id="e1cf3929af2fad0c60246827f8d10d23" class="st0" d="M0,12.7V0.3h7v1.5H1.6v3.7h4.8V7H1.6v4.3h5.8v1.5H0V12.7z"/>
<path id="_x31_4b1e223d88bc7649b55388e87b32dea" class="st0" d="M12.5,0.2c1.3-0.1,2.6,0.3,3.7,1c0.9,0.7,1.4,1.8,1.3,3
	c0,0.6-0.1,1.3-0.4,1.8c-0.2,0.5-0.6,0.9-1,1.2c-0.5,0.3-1.1,0.6-1.6,0.7c-0.7,0.2-1.4,0.2-2.2,0.2H11v4.6H9.4V0.5
	c0.5-0.1,1-0.2,1.5-0.2C11.5,0.2,12.1,0.2,12.5,0.2z M12.7,1.7c-0.7,0-1.2,0-1.6,0.1v4.9h1.2c0.5,0,1,0,1.5-0.1
	c0.4-0.1,0.8-0.2,1.1-0.4c0.3-0.2,0.5-0.4,0.7-0.8s0.3-0.8,0.3-1.2S15.8,3.4,15.6,3c-0.2-0.3-0.4-0.6-0.7-0.7
	c-0.3-0.2-0.7-0.3-1-0.4C13.5,1.7,13.1,1.7,12.7,1.7z"/>
<path id="_x34_3f82c420f1f9a4e21c3099443effe60" class="st0" d="M21.2,0.3h-1.6v12.4h1.6V0.3z"/>
<path id="_x38_6ed2e44de211d8a974bc77d37a487b1" class="st0" d="M33.4,6.5c0,1-0.1,1.9-0.5,2.8c-0.3,0.8-0.7,1.4-1.3,2
	c-0.6,0.5-1.3,0.9-2,1.2c-0.8,0.3-1.7,0.4-2.6,0.4c-0.5,0-1,0-1.5-0.1c-0.5,0-1-0.1-1.5-0.2V0.5c0.5-0.1,1-0.2,1.5-0.2
	c0.6,0,1.1-0.1,1.5-0.1c0.9,0,1.8,0.1,2.6,0.4c0.7,0.2,1.4,0.6,2,1.2c0.6,0.5,1,1.2,1.3,2C33.3,4.6,33.5,5.5,33.4,6.5z M27.2,11.3
	c1.2,0.1,2.5-0.4,3.4-1.3c0.8-1,1.2-2.3,1.1-3.6c0.1-1.3-0.3-2.6-1.1-3.5c-0.9-0.9-2.2-1.4-3.4-1.3c-0.5,0-0.8,0-1.1,0
	c-0.3,0-0.4,0-0.5,0v9.5c0.1,0,0.3,0,0.5,0C26.4,11.3,26.7,11.3,27.2,11.3z"/>
<path id="db9a60fee8d4344b0675f4117748fcfd" class="st0" d="M35.5,12.7V0.3h7v1.5h-5.4v3.7h4.8V7h-4.8v4.3h5.8v1.5h-7.4
	C35.5,12.8,35.5,12.7,35.5,12.7z"/>
<path id="_x30_bec9f8580fc49e8785abbd38b0a21b8" class="st0" d="M50,11c-0.1-0.3-0.3-0.6-0.4-1.1C49.4,9.5,49.2,9,49,8.5
	s-0.4-1-0.7-1.6c-0.2-0.6-0.5-1.1-0.7-1.5c-0.2-0.5-0.4-0.9-0.6-1.3c-0.2-0.4-0.3-0.7-0.4-0.9c-0.1,1.4-0.2,2.9-0.3,4.6
	s-0.1,3.3-0.2,5h-1.6c0-1.1,0.1-2.2,0.1-3.3c0.1-1.1,0.1-2.2,0.2-3.2c0.1-1.1,0.1-2.1,0.2-3.1c0.1-1,0.2-2,0.3-2.9h1.4
	c0.3,0.5,0.6,1.1,1,1.9c0.3,0.7,0.7,1.5,1,2.3s0.7,1.6,1,2.4s0.6,1.5,0.9,2.1c0.3-0.6,0.6-1.4,0.9-2.1c0.3-0.8,0.6-1.6,1-2.4
	c0.3-0.8,0.7-1.5,1-2.3c0.3-0.7,0.7-1.3,1-1.9h1.4c0.4,4,0.7,8.2,0.8,12.4h-1.6C55,11,55,9.4,54.9,7.7s-0.2-3.2-0.3-4.6
	c-0.1,0.2-0.2,0.5-0.4,0.9s-0.4,0.8-0.6,1.3c-0.2,0.5-0.4,1-0.7,1.5c-0.2,0.5-0.5,1.1-0.7,1.6s-0.4,1-0.6,1.4
	c-0.2,0.4-0.3,0.8-0.4,1.1L50,11L50,11z"/>
<path id="c724f6d32b34998afe974269a3d5f438" class="st0" d="M60.8,0.3h-1.6v12.4h1.6V0.3z"/>
<path id="_x33_03db02aebe111bb6dbf1481cf9ec5aa" class="st0" d="M68.5,13c-0.8,0-1.5-0.1-2.2-0.4c-0.7-0.3-1.2-0.7-1.7-1.3
	s-0.9-1.3-1.1-2c-0.3-0.9-0.4-1.8-0.4-2.8c0-0.9,0.1-1.9,0.4-2.8c0.3-0.8,0.7-1.5,1.2-2s1.1-1,1.7-1.3C67.1,0.1,67.8,0,68.5,0
	c0.4,0,0.9,0,1.3,0.1c0.3,0.1,0.7,0.1,1,0.2c0.2,0.1,0.5,0.2,0.7,0.3c0.1,0.1,0.2,0.1,0.4,0.2l-0.5,1.4C71.3,2.1,71.1,2,71,2
	c-0.2-0.1-0.4-0.2-0.6-0.2c-0.3-0.1-0.5-0.2-0.8-0.2c-0.3-0.1-0.6-0.1-0.9-0.1c-0.6,0-1.1,0.1-1.6,0.3s-0.9,0.6-1.2,1
	c-0.4,0.5-0.6,1-0.8,1.6c-0.2,0.7-0.3,1.4-0.3,2.1s0.1,1.4,0.2,2s0.4,1.1,0.7,1.6c0.3,0.4,0.7,0.8,1.2,1s1.1,0.4,1.7,0.4
	s1.2-0.1,1.8-0.2c0.4-0.1,0.7-0.3,1.1-0.4l0.4,1.4c-0.1,0.1-0.3,0.2-0.4,0.2c-0.2,0.1-0.5,0.2-0.8,0.3S70,13,69.7,13
	C69.4,13,69,13,68.5,13z"/>
<path id="_x37_b83c6d6639ac54f70b233d89eb2a9ab" class="st0" d="M79.2,0.3h-1.6v12.4h1.6V0.3z"/>
<path id="_x33_dde319a5c682b1dd7385494ea72c144" class="st0" d="M89.8,12.7c-0.2-0.4-0.5-0.9-0.8-1.5s-0.7-1.1-1-1.7
	c-0.4-0.6-0.7-1.2-1.1-1.8s-0.8-1.2-1.2-1.8s-0.8-1.1-1.1-1.6s-0.7-0.9-1-1.3v9.7H82V0.3h1.3c0.5,0.6,1.1,1.3,1.7,2.1
	s1.2,1.6,1.8,2.5c0.6,0.8,1.1,1.7,1.6,2.5s0.9,1.5,1.3,2.2V0.3h1.6v12.4H89.8z"/>
<path id="_x36_6059d3d53a95fe6f9afe1e593e98470" class="st0" d="M101.6,0.3v1.5H98v10.9h-1.6V1.8h-3.6V0.3H101.6z"/>
<path id="fa0c3f2ec58737380557800feb69d114" class="st0" d="M103.2,12.7V0.3h7v1.5h-5.4v3.7h4.8V7h-4.8v4.3h5.8v1.5h-7.4V12.7z"/>
<path id="_x38_2ea904a29db3feecb919b094ffe3535" class="st0" d="M119.5,11.2v1.5h-6.9V0.3h1.6v10.9H119.5z"/>
<path id="fb0b3529e1b009d7f8ec4005c7d2c2b5" class="st0" d="M128,11.2v1.5h-6.9V0.3h1.6v10.9H128z"/>
<path id="ce228b98db47b6f9fdc3a98acca00886" class="st0" d="M131.3,0.3h-1.6v12.4h1.6V0.3z"/>
<path id="_x33_5fdb4efcd4449058a52cd34c1e00019" class="st0" d="M141,6.6h1.6v5.8c-0.2,0.1-0.4,0.1-0.6,0.2
	c-0.2,0.1-0.5,0.1-0.9,0.2c-0.3,0.1-0.7,0.1-1.1,0.2c-0.4,0-0.8,0.1-1.2,0.1c-0.8,0-1.5-0.1-2.2-0.4c-0.7-0.3-1.2-0.7-1.7-1.3
	s-0.9-1.3-1.1-2c-0.3-0.9-0.4-1.8-0.4-2.8c0-0.9,0.1-1.9,0.4-2.8c0.3-0.8,0.7-1.5,1.2-2c0.5-0.6,1.1-1,1.8-1.3s1.4-0.4,2.1-0.4
	c0.5,0,0.9,0,1.4,0.1c0.4,0.1,0.7,0.1,1,0.2c0.2,0.1,0.5,0.2,0.7,0.3c0.1,0.1,0.2,0.1,0.4,0.2l-0.5,1.5c-0.4-0.3-0.8-0.5-1.3-0.6
	c-0.5-0.2-1.1-0.2-1.6-0.2c-0.6,0-1.1,0.1-1.6,0.3s-0.9,0.6-1.2,1c-0.4,0.5-0.6,1-0.8,1.6c-0.2,0.7-0.3,1.4-0.3,2.1s0.1,1.4,0.2,2
	c0.1,0.6,0.4,1.1,0.7,1.6c0.3,0.4,0.7,0.8,1.2,1s1.1,0.4,1.7,0.4c0.4,0,0.8,0,1.2-0.1c0.2,0,0.5-0.1,0.7-0.2L141,6.6z"/>
<path id="_x30_9eee3f229a2204b3982ae3c3b46c343" class="st0" d="M145.1,12.7V0.3h7v1.5h-5.4v3.7h4.8V7h-4.8v4.3h5.8v1.5h-7.4
	L145.1,12.7L145.1,12.7z"/>
<path id="d6a1f955a8fc08c8f9c4bb011b7838fb" class="st0" d="M162.1,12.7c-0.2-0.4-0.5-0.9-0.8-1.5s-0.7-1.1-1-1.7
	c-0.4-0.6-0.7-1.2-1.1-1.8c-0.4-0.6-0.8-1.2-1.2-1.8s-0.8-1.1-1.1-1.6s-0.7-0.9-1-1.3v9.7h-1.6V0.3h1.3c0.5,0.6,1.1,1.3,1.7,2.1
	s1.2,1.6,1.8,2.5s1.1,1.7,1.6,2.5s1,1.5,1.3,2.2V0.3h1.6v12.4H162.1z"/>
<path id="_x38_fe9b33f1cc6b717a3cd0eb755b1347d" class="st0" d="M171.2,13c-0.8,0-1.5-0.1-2.2-0.4c-0.7-0.3-1.2-0.7-1.7-1.3
	s-0.9-1.3-1.1-2c-0.3-0.9-0.4-1.8-0.4-2.8c0-0.9,0.1-1.9,0.4-2.8c0.3-0.8,0.7-1.5,1.2-2c0.5-0.6,1.1-1,1.7-1.3
	c0.7-0.3,1.4-0.4,2.1-0.4c0.4,0,0.9,0,1.3,0.1c0.3,0.1,0.7,0.1,1,0.2c0.2,0.1,0.5,0.2,0.7,0.3s0.3,0.2,0.4,0.2l-0.5,1.4
	C174,2.1,173.8,2,173.7,2c-0.2-0.1-0.4-0.2-0.6-0.2c-0.3-0.1-0.5-0.2-0.8-0.2c-0.3-0.1-0.6-0.1-0.9-0.1c-0.6,0-1.1,0.1-1.6,0.3
	s-0.9,0.6-1.2,1c-0.4,0.5-0.6,1-0.8,1.6c-0.2,0.7-0.3,1.4-0.3,2.1s0.1,1.4,0.2,2c0.1,0.6,0.4,1.1,0.7,1.6c0.3,0.4,0.7,0.8,1.2,1
	s1.1,0.4,1.7,0.4s1.2-0.1,1.8-0.2c0.4-0.1,0.7-0.3,1.1-0.4l0.4,1.4c-0.1,0.1-0.3,0.2-0.4,0.2c-0.2,0.1-0.5,0.2-0.8,0.3
	s-0.7,0.2-1,0.2C172.1,13,171.7,13,171.2,13z"/>
<path id="_x36_10eebf04c72f193dbe514953d09a922" class="st0" d="M176.6,12.7V0.3h7v1.5h-5.4v3.7h4.8V7h-4.8v4.3h5.8v1.5h-7.4
	L176.6,12.7L176.6,12.7z"/>
<g>
	<path id="_x37_d29b84f401beaec92ce9eecdfad5a17" class="st1" d="M0,31.7V18.3h7.7v1.6H1.8v4H7v1.6H1.8v6.2H0z"/>
	<path id="f79e73526d1ad166faf8fbc5896a28b3" class="st1" d="M16.1,26.2c0.2,0.3,0.4,0.6,0.7,1c0.3,0.4,0.6,0.9,0.9,1.4
		s0.6,1,0.9,1.6c0.3,0.5,0.6,1,0.8,1.6h-1.9c-0.2-0.5-0.5-1-0.8-1.5s-0.6-1-0.9-1.4c-0.3-0.5-0.6-0.9-0.9-1.3s-0.5-0.8-0.8-1
		c-0.2,0-0.3,0-0.5,0h-2.1v5.2H9.7V18.6c0.6-0.1,1.1-0.2,1.7-0.3c0.6-0.1,1.2-0.1,1.7-0.1c1.4-0.1,2.9,0.3,4.1,1.1
		c1,0.7,1.5,1.9,1.4,3.2c0,0.8-0.2,1.6-0.7,2.3C17.6,25.4,16.9,25.9,16.1,26.2z M13.4,19.9c-0.8,0-1.3,0-1.7,0.1v5H13
		c0.6,0,1.1,0,1.7-0.1c0.4-0.1,0.8-0.2,1.2-0.4c0.3-0.2,0.6-0.4,0.8-0.8c0.2-0.4,0.3-0.8,0.3-1.3c0-0.4-0.1-0.9-0.3-1.3
		c-0.2-0.3-0.4-0.6-0.7-0.8c-0.3-0.2-0.7-0.3-1.1-0.4C14.3,20,13.8,19.9,13.4,19.9z"/>
	<path id="_x36_06c3be935157660fefdf434179cbac4" class="st1" d="M20.7,25c0-1,0.2-2.1,0.5-3c0.3-0.8,0.7-1.6,1.3-2.2
		c0.6-0.6,1.2-1,1.9-1.3c0.8-0.3,1.6-0.4,2.4-0.4s1.6,0.1,2.3,0.4c0.7,0.3,1.4,0.7,1.9,1.3c0.6,0.6,1,1.4,1.3,2.2c0.3,1,0.5,2,0.5,3
		s-0.2,2.1-0.5,3c-0.3,0.8-0.7,1.6-1.3,2.2c-0.5,0.6-1.2,1-1.9,1.3c-0.7,0.3-1.5,0.4-2.3,0.4s-1.6-0.1-2.4-0.4
		c-0.7-0.3-1.4-0.7-1.9-1.3c-0.6-0.6-1-1.4-1.3-2.2C20.8,27.1,20.7,26,20.7,25z M22.6,25c0,0.8,0.1,1.5,0.3,2.2
		c0.2,0.6,0.5,1.2,0.8,1.7c0.4,0.5,0.8,0.8,1.3,1.1c0.6,0.3,1.2,0.4,1.8,0.4c0.6,0,1.2-0.1,1.7-0.4s1-0.6,1.3-1.1
		c0.4-0.5,0.7-1.1,0.8-1.7c0.4-1.4,0.4-3,0-4.4c-0.2-0.6-0.5-1.2-0.8-1.7c-0.4-0.5-0.8-0.8-1.3-1.1c-1.1-0.5-2.4-0.5-3.5,0
		c-0.5,0.2-1,0.6-1.3,1.1c-0.4,0.5-0.7,1.1-0.8,1.7C22.7,23.5,22.6,24.3,22.6,25z"/>
	<path id="_x36_e5c50d800fc42d76b683b60c5b326b7" class="st1" d="M40.8,29.8c-0.1-0.3-0.3-0.7-0.5-1.2l-0.7-1.5
		c-0.2-0.5-0.5-1.1-0.7-1.7c-0.3-0.6-0.5-1.1-0.7-1.7c-0.2-0.5-0.5-1-0.6-1.4c-0.2-0.4-0.4-0.7-0.5-0.9c-0.1,1.5-0.2,3.2-0.3,4.9
		c-0.1,1.8-0.2,3.6-0.2,5.4h-1.7c0.1-1.2,0.1-2.3,0.2-3.5s0.1-2.3,0.2-3.5c0.1-1.1,0.2-2.3,0.3-3.3c0.1-1.1,0.2-2.1,0.3-3.1h1.6
		c0.3,0.6,0.7,1.2,1.1,2s0.8,1.6,1.1,2.4c0.4,0.8,0.7,1.7,1.1,2.5c0.4,0.8,0.7,1.6,1,2.3c0.3-0.7,0.6-1.5,1-2.3s0.7-1.7,1.1-2.5
		c0.4-0.8,0.8-1.6,1.1-2.4c0.4-0.8,0.7-1.4,1.1-2h1.6c0.4,4.3,0.7,8.8,0.9,13.4h-1.7c-0.1-1.8-0.1-3.6-0.2-5.4
		c-0.1-1.8-0.2-3.4-0.3-4.9c-0.1,0.2-0.3,0.5-0.5,0.9s-0.4,0.9-0.7,1.4c-0.2,0.5-0.5,1.1-0.7,1.7c-0.3,0.6-0.5,1.2-0.7,1.7
		c-0.2,0.6-0.5,1.1-0.7,1.5s-0.4,0.9-0.5,1.2H40.8z"/>
	<path id="_x38_a9b07d093678dcb1b7e224c4ed13eb2" class="st1" d="M54.6,25c0-1,0.2-2.1,0.5-3c0.3-0.8,0.7-1.6,1.3-2.2s1.2-1,1.9-1.3
		c0.8-0.3,1.6-0.4,2.4-0.4c0.8,0,1.6,0.1,2.3,0.4s1.4,0.7,1.9,1.3c0.6,0.6,1,1.4,1.3,2.2c0.3,1,0.5,2,0.5,3s-0.1,2.1-0.5,3
		c-0.3,0.8-0.7,1.6-1.3,2.2c-0.5,0.6-1.2,1-1.9,1.3s-1.5,0.4-2.3,0.4s-1.6-0.1-2.4-0.4c-0.7-0.3-1.4-0.7-1.9-1.3
		c-0.6-0.6-1-1.4-1.3-2.2C54.8,27.1,54.6,26,54.6,25z M56.5,25c0,0.8,0.1,1.5,0.3,2.2c0.2,0.6,0.5,1.2,0.8,1.7
		c0.4,0.5,0.8,0.8,1.3,1.1c0.6,0.3,1.1,0.4,1.8,0.4c0.6,0,1.2-0.1,1.7-0.4c0.5-0.2,1-0.6,1.3-1.1c0.4-0.5,0.7-1.1,0.8-1.7
		c0.4-1.4,0.4-3,0-4.4c-0.2-0.6-0.5-1.2-0.8-1.7c-0.4-0.5-0.8-0.8-1.3-1.1c-1.1-0.5-2.4-0.5-3.5,0c-0.5,0.2-1,0.6-1.3,1.1
		c-0.4,0.5-0.7,1.1-0.8,1.7C56.6,23.5,56.5,24.3,56.5,25z"/>
	<path id="a0de1797ed2d2b5fb5e7b7a05f423313" class="st1" d="M72.7,18.2c1.4-0.1,2.9,0.3,4.1,1.1c1,0.7,1.5,1.9,1.4,3.2
		c0,0.7-0.1,1.4-0.4,2c-0.3,0.5-0.7,1-1.1,1.3c-0.6,0.4-1.2,0.6-1.8,0.8c-0.8,0.2-1.6,0.2-2.4,0.2h-1.4v5h-1.8V18.5
		c0.6-0.1,1.1-0.2,1.7-0.3C71.6,18.2,72.2,18.2,72.7,18.2z M72.8,19.8c-0.8,0-1.3,0-1.8,0.1v5.3h1.3c0.6,0,1.1,0,1.6-0.1
		c0.4-0.1,0.9-0.2,1.2-0.4c0.3-0.2,0.6-0.5,0.8-0.8c0.2-0.4,0.3-0.9,0.3-1.3s-0.1-0.9-0.3-1.3c-0.2-0.3-0.5-0.6-0.8-0.8
		c-0.4-0.2-0.7-0.3-1.1-0.4C73.7,19.9,73.3,19.8,72.8,19.8z"/>
	<path id="_x37_932aed719cb46aef99d133141c00e77" class="st1" d="M80.4,31.7V18.3h7.8v1.6h-6v4h5.3v1.6h-5.3v4.6h6.4v1.6H80.4z"/>
	<path id="fa76cdf3a0f89916b981bf7a90c06a2d" class="st1" d="M99.4,31.7c-0.3-0.5-0.6-1-0.9-1.6c-0.4-0.6-0.7-1.2-1.1-1.8
		c-0.4-0.6-0.8-1.3-1.3-1.9c-0.4-0.7-0.9-1.3-1.3-1.9s-0.8-1.2-1.2-1.7s-0.8-1-1.1-1.4v10.3h-1.7V18.3h1.4c0.6,0.6,1.2,1.4,1.8,2.3
		c0.7,0.9,1.3,1.7,1.9,2.6s1.2,1.8,1.8,2.7c0.6,0.9,1,1.7,1.4,2.3v-9.9h1.7v13.4C100.8,31.7,99.4,31.7,99.4,31.7z"/>
	<path id="_x33_7f9c363c370c2d378928a415b1447d2" class="st1" d="M111.1,30.5c1.9,0,2.8-0.7,2.8-2c0-0.4-0.1-0.7-0.3-1.1
		c-0.2-0.3-0.4-0.5-0.7-0.8c-0.3-0.2-0.6-0.4-1-0.5c-0.4-0.2-0.7-0.3-1.1-0.5c-0.5-0.2-0.9-0.3-1.3-0.6c-0.4-0.2-0.8-0.4-1.1-0.8
		c-0.3-0.3-0.6-0.6-0.7-1c-0.2-0.5-0.3-1-0.3-1.4c-0.1-1,0.4-2.1,1.1-2.7c0.9-0.7,2-1,3.1-1c0.7,0,1.4,0.1,2.1,0.3
		c0.5,0.1,1,0.3,1.4,0.6l-0.6,1.5c-0.4-0.2-0.7-0.4-1.1-0.5c-0.6-0.2-1.2-0.3-1.8-0.2c-0.3,0-0.6,0-1,0.1c-0.3,0.1-0.5,0.2-0.8,0.3
		c-0.2,0.1-0.4,0.3-0.5,0.6c-0.1,0.3-0.2,0.5-0.2,0.8s0.1,0.6,0.2,0.9s0.3,0.5,0.6,0.6c0.3,0.2,0.6,0.4,0.9,0.5
		c0.3,0.2,0.7,0.3,1.1,0.5c0.6,0.2,1.1,0.5,1.5,0.7s0.8,0.5,1.2,0.8c0.3,0.3,0.6,0.7,0.8,1.1c0.2,0.5,0.3,1.1,0.3,1.6
		c0.1,1.1-0.4,2.1-1.2,2.7c-1,0.7-2.2,1-3.4,1c-0.5,0-0.9,0-1.4-0.1c-0.4-0.1-0.8-0.1-1.1-0.3c-0.3-0.1-0.6-0.2-0.9-0.3
		c-0.2-0.1-0.4-0.2-0.6-0.3l0.5-1.5c0.4,0.2,0.8,0.4,1.3,0.6C109.7,30.4,110.4,30.5,111.1,30.5z"/>
	<path id="f1825762e5904613bf1a6131e8d49a34" class="st1" d="M117.3,25c0-1,0.1-2.1,0.5-3c0.3-0.8,0.7-1.6,1.3-2.2s1.2-1,1.9-1.3
		c0.8-0.3,1.6-0.4,2.4-0.4s1.6,0.1,2.3,0.4s1.4,0.7,1.9,1.3c0.6,0.6,1,1.4,1.3,2.2c0.3,1,0.5,2,0.5,3s-0.2,2.1-0.5,3
		c-0.3,0.8-0.7,1.6-1.3,2.2c-0.5,0.6-1.2,1-1.9,1.3s-1.5,0.4-2.3,0.4s-1.6-0.1-2.4-0.4c-0.7-0.3-1.4-0.7-1.9-1.3
		c-0.6-0.6-1-1.4-1.3-2.2C117.4,27.1,117.3,26,117.3,25z M119.2,25c0,0.8,0.1,1.5,0.3,2.2c0.2,0.6,0.5,1.2,0.8,1.7
		c0.4,0.5,0.8,0.8,1.3,1.1c0.6,0.3,1.1,0.4,1.7,0.4s1.2-0.1,1.7-0.4c0.5-0.2,1-0.6,1.3-1.1c0.4-0.5,0.7-1.1,0.8-1.7
		c0.4-1.4,0.4-3,0-4.4c-0.2-0.6-0.5-1.2-0.8-1.7c-0.4-0.5-0.8-0.8-1.3-1.1c-1.1-0.5-2.4-0.5-3.5,0c-0.5,0.2-1,0.6-1.3,1.1
		c-0.4,0.5-0.7,1.1-0.8,1.7C119.3,23.5,119.2,24.3,119.2,25z"/>
	<path id="_x37_051ed7acdf65474676f08a3e9b823fe" class="st1" d="M136.7,31.9c-0.7,0-1.5-0.1-2.2-0.4c-0.6-0.2-1.1-0.6-1.5-1.1
		s-0.7-1.1-0.9-1.7c-0.2-0.7-0.3-1.4-0.3-2.1v-8.4h1.8v8.2c-0.1,1,0.2,2.1,0.8,2.9c0.6,0.6,1.4,0.9,2.2,0.9c0.4,0,0.8-0.1,1.2-0.2
		s0.7-0.4,1-0.7c0.3-0.3,0.5-0.8,0.6-1.2c0.2-0.6,0.2-1.1,0.2-1.7v-8.2h1.8v8.4c0,0.7-0.1,1.4-0.3,2.1c-0.2,0.6-0.5,1.2-0.9,1.7
		s-0.9,0.9-1.5,1.1C138.2,31.8,137.4,31.9,136.7,31.9z"/>
	<path id="_x38_38c69b295e0fde05a83fbe729f565e4" class="st1" d="M150.7,26.2c0.2,0.3,0.4,0.6,0.7,1s0.6,0.9,0.9,1.4
		c0.3,0.5,0.6,1,0.9,1.6c0.3,0.5,0.6,1,0.8,1.6h-1.9c-0.2-0.5-0.5-1-0.8-1.5s-0.6-1-0.9-1.4c-0.3-0.5-0.6-0.9-0.9-1.3
		c-0.3-0.4-0.6-0.8-0.8-1c-0.2,0-0.3,0-0.5,0h-2.1v5.2h-1.8V18.6c0.6-0.1,1.1-0.2,1.7-0.3c0.6-0.1,1.2-0.1,1.7-0.1
		c1.4-0.1,2.9,0.3,4.1,1.1c1,0.7,1.5,1.9,1.4,3.2c0,0.8-0.2,1.6-0.7,2.3C152.2,25.4,151.5,25.9,150.7,26.2z M148,19.9
		c-0.8,0-1.3,0-1.7,0.1v5h1.3c0.6,0,1.1,0,1.7-0.1c0.4-0.1,0.8-0.2,1.2-0.4c0.3-0.2,0.6-0.4,0.8-0.8s0.3-0.8,0.3-1.3
		c0-0.4-0.1-0.9-0.3-1.3c-0.2-0.3-0.4-0.6-0.7-0.8c-0.3-0.2-0.7-0.3-1.1-0.4C148.9,20,148.5,19.9,148,19.9z"/>
	<path id="_x35_fad80c08d035a522676dd57ceaa2f5b" class="st1" d="M166.9,31.7V18.3h7.8v1.6h-6v4h5.3v1.6h-5.3v4.6h6.4v1.6H166.9z"/>
	<path id="_x33_b29d15f7dd9611882c49a5fcb5bb0a9" class="st1" d="M180.3,30.5c1.9,0,2.8-0.7,2.8-2c0-0.4-0.1-0.7-0.3-1.1
		c-0.2-0.3-0.4-0.5-0.7-0.8c-0.3-0.2-0.6-0.4-1-0.5c-0.4-0.2-0.7-0.3-1.1-0.5c-0.5-0.2-0.9-0.3-1.3-0.6c-0.4-0.2-0.8-0.4-1.1-0.8
		c-0.3-0.3-0.6-0.6-0.7-1c-0.2-0.5-0.3-1-0.3-1.4c-0.1-1.1,0.4-2.1,1.1-2.7c0.9-0.7,2-1.1,3.1-1c0.7,0,1.4,0.1,2.1,0.3
		c0.5,0.1,1,0.3,1.4,0.6l-0.6,1.5c-0.4-0.2-0.7-0.4-1.1-0.5c-0.6-0.2-1.2-0.3-1.8-0.2c-0.3,0-0.6,0-1,0.1c-0.3,0.1-0.5,0.2-0.8,0.3
		c-0.2,0.1-0.4,0.3-0.5,0.6c-0.1,0.3-0.2,0.5-0.2,0.8s0.1,0.6,0.2,0.9s0.3,0.5,0.6,0.6c0.3,0.2,0.6,0.4,0.9,0.5
		c0.3,0.2,0.7,0.3,1.1,0.5c0.6,0.2,1.1,0.5,1.5,0.7s0.8,0.5,1.2,0.8c0.3,0.3,0.6,0.7,0.8,1.1c0.2,0.5,0.3,1.1,0.3,1.6
		c0,1.1-0.4,2.1-1.2,2.7c-1,0.7-2.2,1-3.4,1c-0.5,0-0.9,0-1.4-0.1c-0.4-0.1-0.8-0.1-1.1-0.3c-0.3-0.1-0.6-0.2-0.9-0.3
		c-0.2-0.1-0.4-0.2-0.6-0.3l0.5-1.5c0.4,0.2,0.8,0.4,1.3,0.6C178.9,30.4,179.6,30.5,180.3,30.5z"/>
	<path id="_x38_fe9b33f1cc6b717a3cd0eb755b1347d_00000150793592365648415110000006479160331419473289_" class="st1" d="M160.9,31.7
		c-0.8,0-1.5-0.1-2.2-0.4s-1.2-0.7-1.7-1.3s-0.9-1.3-1.1-2.1c-0.3-0.9-0.4-1.9-0.4-2.9c0-0.9,0.1-2,0.4-2.9c0.3-0.8,0.7-1.5,1.2-2.1
		s1.1-1,1.7-1.3c0.7-0.3,1.4-0.4,2.1-0.4c0.4,0,0.9,0,1.3,0.1c0.3,0.1,0.7,0.1,1,0.2c0.2,0.1,0.5,0.2,0.7,0.3s0.3,0.2,0.4,0.2
		l-0.5,1.4c-0.1-0.1-0.3-0.2-0.4-0.2c-0.2-0.1-0.4-0.2-0.6-0.2c-0.3-0.1-0.5-0.2-0.8-0.2c-0.3-0.1-0.6-0.1-0.9-0.1
		c-0.6,0-1.1,0.1-1.6,0.3s-0.9,0.6-1.2,1c-0.4,0.5-0.6,1-0.8,1.6c-0.2,0.7-0.3,1.4-0.3,2.2s0.1,1.4,0.2,2.1c0.1,0.6,0.4,1.1,0.7,1.6
		c0.3,0.4,0.7,0.8,1.2,1s1.1,0.4,1.7,0.4s1.2-0.1,1.8-0.2c0.4-0.1,0.7-0.3,1.1-0.4l0.4,1.4c-0.1,0.1-0.3,0.2-0.4,0.2
		c-0.2,0.1-0.5,0.2-0.8,0.3s-0.7,0.2-1,0.2C161.8,31.7,161.4,31.7,160.9,31.7z"/>
</g>
</svg>
