<?xml version="1.0" encoding="utf-8"?>
<!-- Generator: Adobe Illustrator 25.4.1, SVG Export Plug-In . SVG Version: 6.00 Build 0)  -->
<svg version="1.1" id="Livello_1" xmlns="http://www.w3.org/2000/svg" xmlns:xlink="http://www.w3.org/1999/xlink" x="0px" y="0px"
	 viewBox="0 0 74 32" style="enable-background:new 0 0 74 32;" xml:space="preserve">
<style type="text/css">
	.st0{fill:#FCC00E;}
	.st1{fill:#6C757D;}
</style>
<g>
	<path id="_x36_d6dfd71aaa8ecf1ce3b02cff73210e2" class="st0" d="M0.1,32V0h17v3h-14v12h12v3h-12v11h14v3H0.1z"/>
	<path id="_x31_2cf2d506ee99a145c686421e7877980" class="st0" d="M26.1,0h-3v32h3V0z"/>
	<path id="_x34_129ea3687e116104b79fc39ac216316" class="st1" d="M49,27.3c-0.8,1.8-2.2,3.3-4.1,4.1C44,31.8,43,32,41.9,32h-2.2
		c-1,0-2-0.2-3-0.6c-1.8-0.8-3.3-2.2-4.1-4.1c-0.4-0.9-0.6-2-0.6-3V7.7c0-1,0.2-2,0.6-3c0.5-0.9,1-1.7,1.7-2.4s1.5-1.3,2.4-1.6
		c0.9-0.4,2-0.6,3-0.6h2.2c1,0,2,0.2,3,0.6c1.8,0.8,3.3,2.2,4.1,4.1c0.4,0.9,0.6,2,0.6,3v16.7C49.6,25.4,49.4,26.4,49,27.3z
		 M46.8,7.6c0-0.7-0.1-1.3-0.4-1.9c-0.5-1.2-1.5-2.1-2.6-2.6c-0.6-0.3-1.3-0.4-1.9-0.4h-2c-0.7,0-1.3,0.1-1.9,0.4
		c-0.6,0.2-1.1,0.6-1.6,1.1s-0.8,1-1.1,1.6s-0.4,1.3-0.4,1.9v16.7c0,0.7,0.1,1.3,0.4,1.9c0.3,0.6,0.6,1.1,1.1,1.6s1,0.8,1.6,1.1
		c0.6,0.3,1.3,0.4,1.9,0.4h2c0.7,0,1.3-0.1,1.9-0.4c0.6-0.2,1.1-0.6,1.6-1.1c0.4-0.5,0.8-1,1.1-1.6s0.4-1.3,0.4-1.9L46.8,7.6z"/>
	<path id="_x37_9541e65cf833e5e9c614406a0b652b7" class="st1" d="M73.7,24.4c0,1-0.2,2-0.6,3c-0.8,1.8-2.3,3.3-4.2,4.1
		c-0.9,0.4-2,0.6-3,0.6h-2.2c-1,0-2.1-0.2-3-0.6c-1.9-0.8-3.4-2.2-4.2-4.1c-0.4-0.9-0.6-1.9-0.6-3v-1.2l2.8-0.5v1.7
		c0,0.7,0.1,1.3,0.4,1.9c0.3,0.6,0.7,1.1,1.1,1.6c0.5,0.5,1,0.8,1.7,1.1c0.6,0.3,1.3,0.4,2,0.4h2c0.7,0,1.4-0.1,2-0.4
		c1.2-0.5,2.2-1.5,2.8-2.7c0.3-0.6,0.4-1.3,0.4-1.9v-0.9c0-0.9-0.2-1.8-0.6-2.7c-0.4-0.7-1-1.3-1.7-1.8s-1.5-0.9-2.4-1.3
		c-0.9-0.3-1.8-0.7-2.7-1c-0.9-0.3-1.8-0.7-2.7-1.1c-0.9-0.4-1.7-0.9-2.4-1.6c-0.7-0.6-1.3-1.4-1.7-2.3c-0.5-1.1-0.7-2.2-0.6-3.4
		V7.6c0-1,0.2-2,0.6-3c0.8-1.8,2.2-3.3,4.1-4.1c0.9-0.4,2-0.6,3-0.6h2c1,0,2,0.2,3,0.6c1.8,0.8,3.3,2.2,4.1,4.1
		c0.4,0.9,0.6,1.9,0.6,3v0.8l-2.8,0.5V7.6c0-0.7-0.1-1.3-0.4-1.9c-0.5-1.2-1.4-2.1-2.6-2.6c-0.6-0.3-1.3-0.4-1.9-0.4h-1.7
		c-0.7,0-1.3,0.1-1.9,0.4c-0.6,0.2-1.1,0.6-1.6,1.1s-0.8,1-1.1,1.6C59.1,6.3,59,7,59,7.6v0.6c0,0.9,0.2,1.8,0.6,2.5
		c0.4,0.7,1,1.3,1.7,1.8s1.5,0.9,2.4,1.3c0.9,0.3,1.8,0.7,2.7,1.1c0.9,0.4,1.8,0.8,2.7,1.2c0.9,0.4,1.7,1,2.4,1.6
		c0.7,0.7,1.3,1.5,1.7,2.4c0.5,1.1,0.7,2.2,0.6,3.4L73.7,24.4L73.7,24.4z"/>
</g>
</svg>
