<?xml version="1.0" encoding="utf-8"?>
<!-- Generator: Adobe Illustrator 26.0.3, SVG Export Plug-In . SVG Version: 6.00 Build 0)  -->
<svg version="1.1" id="Livello_1" xmlns="http://www.w3.org/2000/svg" xmlns:xlink="http://www.w3.org/1999/xlink" x="0px" y="0px"
	 viewBox="0 0 16 52" style="enable-background:new 0 0 16 52;" xml:space="preserve">
<style type="text/css">
	.st0{fill:#FFFFFF;}
	.st1{fill:none;stroke:#F4F4F4;stroke-width:2;stroke-miterlimit:10;}
</style>
<path class="st0" d="M-1,52v-4c0-2.2,1.8-4.4,3.9-4.9l8.2-1.8c2.1-0.5,3.9-2.7,3.9-4.9l0-20.9c0-2.2-1.8-4.4-3.9-4.9L2.9,8.7
	C0.8,8.4-1,6.2-1,4V0h-1v52H-1z"/>
<path class="st1" d="M-1,52v-4c0-2.2,1.8-4.4,3.9-4.9l8.2-1.8c2.1-0.5,3.9-2.7,3.9-4.9l0-20.9c0-2.2-1.8-4.4-3.9-4.9L2.9,8.7
	C0.8,8.4-1,6.2-1,4V0"/>
</svg>
