<?xml version="1.0" encoding="utf-8"?>
<!-- Generator: Adobe Illustrator 25.4.1, SVG Export Plug-In . SVG Version: 6.00 Build 0)  -->
<svg version="1.1" xmlns="http://www.w3.org/2000/svg" xmlns:xlink="http://www.w3.org/1999/xlink" x="0px" y="0px"
	 viewBox="0 0 52 19" style="enable-background:new 0 0 52 19;" xml:space="preserve">
<style type="text/css">
	.st0{fill:#FFFFFF;}
	.st1{fill:none;stroke:#EFEFEF;stroke-width:2;stroke-miterlimit:10;}
</style>
<g id="Livello_2">
	<g>
		<path class="st0" d="M0,0v1h4c2.2,0,4.4,1.8,4.9,3.9l2.2,9.2c0.5,2.1,2.7,3.9,4.9,3.9h20c2.2,0,4.4-1.8,4.9-3.9l2.2-9.2
			C43.6,2.8,45.8,1,48,1h4V0H0z"/>
	</g>
</g>
<g id="Livello_1">
	<g>
		<path class="st1" d="M0,1h4c2.2,0,4.4,1.8,4.9,3.9l2.2,9.2c0.5,2.1,2.7,3.9,4.9,3.9h20c2.2,0,4.4-1.8,4.9-3.9l2.2-9.2
			C43.6,2.8,45.8,1,48,1h4"/>
	</g>
</g>
</svg>
