<?xml version="1.0" encoding="utf-8"?>
<!-- Generator: Adobe Illustrator 26.0.3, SVG Export Plug-In . SVG Version: 6.00 Build 0)  -->
<svg version="1.1" id="Livello_1" xmlns="http://www.w3.org/2000/svg" xmlns:xlink="http://www.w3.org/1999/xlink" x="0px" y="0px"
	 viewBox="0 0 24 24" style="enable-background:new 0 0 24 24;" xml:space="preserve">
<style type="text/css">
	.st0{display:none;}
	.st1{display:inline;}
	.st2{fill:none;stroke:#727A82;stroke-width:2;}
	.st3{fill:none;stroke:#727A82;stroke-width:2;stroke-linejoin:round;}
	.st4{fill:none;stroke:#727A82;stroke-width:2;stroke-linecap:round;}
	.st5{display:inline;fill:none;stroke:#727A82;stroke-width:2;stroke-miterlimit:10;}
	.st6{display:inline;fill:none;stroke:#727A82;stroke-width:2;stroke-linejoin:bevel;stroke-miterlimit:10;}
	.st7{fill:none;stroke:#727A82;stroke-width:2;stroke-miterlimit:10;}
	.st8{fill:none;stroke:#727A82;stroke-width:2;stroke-linejoin:bevel;stroke-miterlimit:10;}
</style>
<g id="Livello_1_00000065035928452894102450000003520561030159719588_" class="st0">
	<g id="Livello_1_00000135681972428103892510000000203386509112008350_" class="st1">
		<path class="st2" d="M2,12C2,6.5,6.5,2,12,2s10,4.5,10,10s-4.5,10-10,10"/>
		<polyline class="st3" points="12,22 2,22 2,13 		"/>
	</g>
	<g class="st1">
		<path class="st2" d="M22,20c0,1.1-0.9,2-2,2H4c-1.1,0-2-0.9-2-2V4c0-1.1,0.9-2,2-2h16c1.1,0,2,0.9,2,2V20z"/>
	</g>
	<g class="st1">
		<path class="st4" d="M6,10c0,0,1.3,1.1,3,2.5s4.4,1.4,6,0s3-2.5,3-2.5"/>
	</g>
</g>
<g id="Livello_2_00000055700905326202224920000000577016927590736264_" class="st0">
	<path class="st5" d="M4,18"/>
	<path class="st6" d="M4,18c-1.3-1.7-2-3.8-2-6C2,6.5,6.5,2,12,2s10,4.5,10,10s-4.5,10-10,10H2L4,18z"/>
	<line class="st6" x1="7" y1="10" x2="17" y2="10"/>
	<line class="st6" x1="7" y1="14" x2="14" y2="14"/>
</g>
<g id="Livello_3">
	<path class="st7" d="M2,22l2-6c-0.7-1.2-1-2.6-1-4c0-5,4-9,9-9s9,4,9,9s-4,9-9,9L2,22z"/>
	<line class="st8" x1="8" y1="10" x2="16" y2="10"/>
	<line class="st8" x1="8" y1="14" x2="13" y2="14"/>
</g>
</svg>
