<svg version="1.1" xmlns="http://www.w3.org/2000/svg" xmlns:xlink="http://www.w3.org/1999/xlink" x="0px" y="0px"
	 viewBox="0 0 20 14" style="enable-background:new 0 0 20 14;" xml:space="preserve">
<path d="M14.5,13.9l-1-1.7L18,9.4C17.7,5.3,14.2,2,10,2S2.3,5.3,2,9.4l4.5,2.7l-1,1.7L0,10.6V10C0,4.5,4.5,0,10,0
	c5.5,0,10,4.5,10,10v0.6L14.5,13.9z"/>
<circle cx="10" cy="11.5" r="2.5"/>
<path d="M9.8,12.4c-0.1,0-0.2,0-0.2-0.1c-0.5-0.2-0.7-0.8-0.5-1.3l2.6-5.4c0.2-0.5,0.8-0.7,1.3-0.5
	c0.5,0.2,0.7,0.8,0.5,1.3l-2.6,5.4C10.7,12.3,10.2,12.5,9.8,12.4z"/>
</svg>
