<svg width="20" height="20" viewBox="0 0 20 20" fill="none" xmlns="http://www.w3.org/2000/svg">
  <g id="c9556070ca550bcba0f6b023bd446ff9">
    <path id="2accbcb5959b2885bad59d39c323e3eb" d="M10 0C4.49 0 0 4.49 0 10C0 15.51 4.49 20 10 20C15.51 20 20 15.51 20 10C20 4.49 15.51 0 10 0ZM10 2C10.27 2 10.54 2.01 10.81 2.04L10.3 3.81L5.67 5.55L8.51 10.52L13.12 10.98V16.75L14.12 16.84C13.18 17.41 12.12 17.79 10.99 17.93V13.57L8.32 11.57H5.01L2.32 7.73C3.3 4.42 6.36 2 9.99 2H10ZM2.04 10.8L3.98 13.57H7.67L9 14.57V17.93C5.32 17.47 2.41 14.51 2.04 10.8ZM15.69 15.61L15.13 15.39V9.16L9.74 8.62L8.58 6.59L11.95 5.33L12.76 2.5C15.81 3.63 18 6.56 18 10C18 12.19 17.12 14.17 15.69 15.62V15.61Z" fill="#727A82"></path>
  </g>
</svg>