<?xml version="1.0" encoding="utf-8"?>
<!-- Generator: Adobe Illustrator 25.4.1, SVG Export Plug-In . SVG Version: 6.00 Build 0)  -->
<svg version="1.1" id="Livello_5" xmlns="http://www.w3.org/2000/svg" xmlns:xlink="http://www.w3.org/1999/xlink" x="0px" y="0px"
	 viewBox="0 0 20 14" style="enable-background:new 0 0 20 14;" xml:space="preserve">
<path d="M15,14c-0.2,0-0.4,0-0.5-0.1L9.7,11H3c-1.7,0-3-1.3-3-3V3c0-1.7,1.3-3,3-3h14c1.7,0,3,1.3,3,3v5c0,1.7-1.3,3-3,3h-1v2
	c0,0.4-0.2,0.7-0.5,0.9C15.3,14,15.2,14,15,14z M3,2C2.4,2,2,2.4,2,3v5c0,0.6,0.4,1,1,1h7c0.2,0,0.4,0,0.5,0.1l3.5,2.1V10
	c0-0.6,0.4-1,1-1h2c0.6,0,1-0.4,1-1V3c0-0.6-0.4-1-1-1H3z"/>
<rect x="4" y="5" width="7" height="1"/>
<rect x="13" y="5" width="3" height="1"/>
</svg>
