<?xml version="1.0" encoding="utf-8"?>
<!-- Generator: Adobe Illustrator 26.0.3, SVG Export Plug-In . SVG Version: 6.00 Build 0)  -->
<svg version="1.1" id="Livello_1" xmlns="http://www.w3.org/2000/svg" xmlns:xlink="http://www.w3.org/1999/xlink" x="0px" y="0px"
	 viewBox="0 0 52 20" style="enable-background:new 0 0 52 20;" xml:space="preserve">
<style type="text/css">
	.st0{fill:#FFFFFF;}
	.st1{opacity:0.35;}
	.st2{fill:#C0CCDA;}
</style>
<path class="st0" d="M48,1c-2.2,0-4.4,1.8-4.9,3.9l-2.3,10.2C40.4,17.2,38.2,19,36,19H16c-2.2,0-4.4-1.8-4.9-3.9L8.9,4.9
	C8.4,2.8,6.2,1,4,1l0-1h44V1z"/>
<g class="st1">
	<path class="st2" d="M0,0"/>
	<path class="st2" d="M0,2"/>
	<path class="st2" d="M48,0c-2.7,0-5.3,2.2-5.7,4.7L40,14.9c-0.4,1.7-2.2,3.1-3.9,3.1h-20c-1.7,0-3.5-1.5-3.9-3.1L9.9,4.7
		C9.3,2.1,6.6,0,4,0v2c1.7,0,3.5,1.5,3.9,3.1l2.3,10.2c0.6,2.6,3.2,4.7,5.9,4.7h20c2.6,0,5.3-2.1,5.9-4.7L44.3,5c0.2-1.6,2-3,3.7-3
		V0z"/>
</g>
</svg>
