<?xml version="1.0" encoding="utf-8"?>
<!-- Generator: Adobe Illustrator 25.4.1, SVG Export Plug-In . SVG Version: 6.00 Build 0)  -->
<svg version="1.1" id="Livello_1" xmlns="http://www.w3.org/2000/svg" xmlns:xlink="http://www.w3.org/1999/xlink" x="0px" y="0px"
	 viewBox="0 0 32 32" style="enable-background:new 0 0 32 32;" xml:space="preserve">
<style type="text/css">
	.st0{fill:#D3D3D3;}
</style>
<g id="_x37_1fc6cccc4bb432a9b707a51f8bfddc1">
	<path id="_x30_27d6bd79fe89c84ecbe9269a35f52f8" class="st0" d="M32,12.9c0-0.6-0.2-1.2-0.5-1.8c-0.3-0.5-0.7-1-1.2-1.3
		c0.5-0.3,0.9-0.8,1.2-1.3C31.8,8,32,7.4,32,6.8c0-1-0.6-3-4.7-4.8C23.7,0.6,19.9-0.1,16,0C12.1-0.1,8.3,0.6,4.7,2
		C0.6,3.7,0,5.7,0,6.8C0,7.4,0.2,8,0.5,8.5s0.7,1,1.2,1.3c-0.5,0.3-0.9,0.8-1.2,1.3C0.2,11.7,0,12.3,0,12.9c0,0.6,0.2,1.2,0.5,1.7
		s0.7,1,1.2,1.3c-0.5,0.3-0.9,0.8-1.2,1.3S0,18.5,0,19.1s0.2,1.2,0.5,1.8c0.3,0.5,0.7,1,1.2,1.3c-0.5,0.3-0.9,0.8-1.2,1.3
		S0,24.6,0,25.2c0,1,0.6,3,4.7,4.8c3.6,1.4,7.5,2.1,11.3,2c3.9,0.1,7.7-0.6,11.3-2c4.1-1.7,4.7-3.7,4.7-4.8c0-0.6-0.2-1.2-0.5-1.7
		s-0.7-1-1.2-1.3c0.5-0.3,0.9-0.8,1.2-1.3c0.3-0.5,0.5-1.1,0.5-1.8c0-0.6-0.2-1.2-0.5-1.7s-0.7-1-1.2-1.3c0.5-0.3,0.9-0.8,1.2-1.3
		C31.8,14.1,32,13.5,32,12.9z M3,6.8c0-0.5,0.8-1.5,3-2.4c3.2-1.2,6.6-1.8,10-1.7c3.4-0.1,6.8,0.5,10,1.7c2.2,0.9,3,1.9,3,2.4
		c0,0.4-0.4,0.9-1.3,1.6C27.2,8.7,26.6,9,26,9.2c-0.6,0.3-1.2,0.5-1.8,0.6c-2.7,0.7-5.4,1.1-8.2,1.1s-5.5-0.3-8.2-1.1
		C7.2,9.7,6.6,9.4,6,9.2S4.9,8.7,4.3,8.3C3.4,7.7,3,7.1,3,6.8z M26,27.7c-3.2,1.2-6.6,1.8-10,1.7c-3.4,0.1-6.8-0.5-10-1.7
		c-2.2-0.9-3-1.9-3-2.4c0-0.4,0.4-0.9,1.3-1.6l0.3,0.2c3.6,1.4,7.5,2.1,11.3,2c3.9,0.1,7.7-0.6,11.3-2l0.4-0.2
		c0.9,0.6,1.3,1.2,1.3,1.6C29,25.8,28.2,26.8,26,27.7z M27.7,20.7c-0.5,0.3-1.1,0.6-1.7,0.9c-0.6,0.2-1.2,0.5-1.8,0.6
		c-2.7,0.7-5.4,1.1-8.2,1c-2.8,0-5.5-0.3-8.2-1.1C7.2,22,6.6,21.8,6,21.5c-0.6-0.2-1.1-0.5-1.7-0.9C3.4,20,3,19.5,3,19.1
		s0.4-0.9,1.3-1.6l0.3,0.2c3.6,1.4,7.5,2.1,11.3,2c3.9,0.1,7.7-0.6,11.3-2l0.4-0.2c0.9,0.6,1.3,1.2,1.3,1.6S28.6,20,27.7,20.7
		L27.7,20.7z M27.7,14.5c-0.5,0.3-1.1,0.6-1.7,0.9c-0.6,0.3-1.2,0.5-1.8,0.6c-2.7,0.7-5.4,1.1-8.2,1c-2.8,0-5.5-0.3-8.2-1.1
		c-0.6-0.2-1.2-0.4-1.8-0.6c-0.6-0.2-1.1-0.5-1.7-0.9C3.4,13.9,3,13.3,3,12.9s0.4-0.9,1.3-1.6l0.3,0.2c3.6,1.4,7.5,2.1,11.3,2
		c3.9,0.1,7.7-0.6,11.3-2l0.4-0.1c0.9,0.6,1.3,1.2,1.3,1.6S28.6,13.9,27.7,14.5L27.7,14.5z"/>
</g>
</svg>
