<svg xmlns="http://www.w3.org/2000/svg" x="0px" y="0px" viewBox="0 0 32px 32px">
<path d="M29.3,12h-0.1l0.7-3.1C30.3,7.3,29.3,6,27.7,6h-0.2L28,3
	c0.2-1.6-1-3-2.7-3H6.7C5,0,3.8,1.3,4,3l0.5,3H4.3C2.7,6,1.7,7.3,2.1,8.9L2.8,12H2.6C1,12-0.2,13.3,0,15l2.6,17h3.1h20.5h3.1L32,15
	C32.2,13.3,31,12,29.3,12z M24.8,3l-0.4,3H7.6L7.2,3H24.8z M8.1,9H24h3l-0.7,3h-2.7h-15H5.8L5.1,9H8.1z M26.8,28.6
	c0,0.2-0.3,0.4-0.5,0.4H5.8c-0.2,0-0.5-0.3-0.5-0.4L3.2,15h0.3h2.3h0.7h2.5h14.1h2.5h0.7h2.3h0.3L26.8,28.6z"/>
<path d="M20,20h-8c-0.6,0-1-0.5-1-1s0.5-1,1-1h8c0.6,0,1,0.5,1,1
	S20.6,20,20,20z"/>
</svg>
