<?xml version="1.0" encoding="utf-8"?>
<!-- Generator: Adobe Illustrator 25.4.1, SVG Export Plug-In . SVG Version: 6.00 Build 0)  -->
<svg version="1.1" id="Livello_1" xmlns="http://www.w3.org/2000/svg" xmlns:xlink="http://www.w3.org/1999/xlink" x="0px" y="0px"
	 viewBox="0 0 32 32" style="enable-background:new 0 0 32 32;" xml:space="preserve">
<style type="text/css">
	.st0{fill:#C4C4C4;}
</style>
<path id="_x39_31c86eca28e777013361720a7917698" class="st0" d="M13.8,3.1c1.4,0,2.9,0.3,4.2,0.8c1.3,0.6,2.5,1.4,3.5,2.4l3.1,1.2
	l0.6-1.4c-1.3-1.9-3-3.4-5-4.5S16,0,13.7,0c-3.6,0-7.1,1.4-9.6,3.9c-2.6,2.5-4,6-4.1,9.6c0,1.1,0.2,2.3,0.5,3.4l2.7-5.4
	C3.8,9.2,5.1,7,7,5.5S11.3,3.1,13.8,3.1z"/>
<path id="b6ef0268b79f9628a6065111185a8723" class="st0" d="M31.5,29.6l-2.3-2.2l-5-5c1.5-1.8,2.5-3.9,3-6.2L24.3,15
	c-0.4,2.5-1.7,4.9-3.6,6.5c-2,1.7-4.5,2.6-7,2.5c-2.8,0-5.5-1.1-7.5-3l-1.4,2.8c2.4,2,5.4,3.2,8.5,3.2s6.2-0.9,8.7-2.8l6.9,6.8
	l0.5,0.5c0.3,0.3,0.7,0.4,1.1,0.4s0.8-0.2,1.1-0.4c0.3-0.3,0.4-0.7,0.4-1.1C31.9,30.3,31.7,29.9,31.5,29.6z"/>
<path id="_x34_e5505800a02329b8cd001986e2e8043" class="st0" d="M1.6,23.9c-0.3,0-0.5-0.1-0.7-0.2c-0.2-0.1-0.4-0.3-0.5-0.5
	c-0.2-0.3-0.3-0.5-0.3-0.8s0-0.5,0.2-0.7L4,14.2l5.1,3.2l3.4-13.5l5.4,9.5l2.4-5.5l5,2l3.9-9c0.1-0.2,0.2-0.3,0.3-0.5
	c0.1-0.1,0.3-0.2,0.5-0.3S30.3,0,30.5,0s0.4,0,0.6,0.1s0.3,0.2,0.5,0.3c0.1,0.1,0.2,0.3,0.3,0.5C32,1.3,32,1.5,32,1.7s0,0.4-0.1,0.6
	l-5.1,11.6l-5-2l-3.6,8.3L13.7,12l-2.6,10.2l-5.9-3.7L2.9,23c-0.1,0.2-0.3,0.5-0.6,0.6C2.2,23.8,1.9,23.9,1.6,23.9z"/>
</svg>
