
<svg version="1.1" xmlns="http://www.w3.org/2000/svg" xmlns:xlink="http://www.w3.org/1999/xlink" x="0px" y="0px"
	 viewBox="0 0 32 32" style="enable-background:new 0 0 32 32;" xml:space="preserve">
<path id="_x31_e09ef5d6ec922a43c2e7acca26031b0" d="M31.6,15.4L28,11.7L25.4,9l-8.3-8.6C16.8,0.2,16.4,0,16,0
	c-0.4,0-0.8,0.2-1.1,0.5L6.7,9l-2.6,2.7l-1.1,1.2l-2.5,2.5c-0.6,0.6-0.6,1.5,0,2.1c0.6,0.6,1.5,0.6,2.1,0L4,16.1L4,29
	c0,1.6,1.3,3,3,3h6h6h6c1.7,0,3-1.4,3-3V16.1l1.4,1.5c0.3,0.3,0.7,0.5,1.1,0.5c0.4,0,0.8-0.1,1-0.4C32.1,17,32.2,16,31.6,15.4z
	 M14,29V19h4v10H14z M25,29h-4V18c0-1.1-0.9-2-2-2h-6c-1.1,0-2,0.9-2,2v11H7l0-16l1-1l2.9-3L16,3.7L21.2,9l2.9,3l0.9,1V29z"/>
</svg>
