<?xml version="1.0" encoding="utf-8"?>
<!-- Generator: Adobe Illustrator 26.3.1, SVG Export Plug-In . SVG Version: 6.00 Build 0)  -->
<svg version="1.1" id="Livello_1" xmlns="http://www.w3.org/2000/svg" xmlns:xlink="http://www.w3.org/1999/xlink" x="0px" y="0px"
	 viewBox="0 0 20 52" style="enable-background:new 0 0 20 52;" xml:space="preserve">
<style type="text/css">
	.st0{fill:#FFFFFF;}
	.st1{opacity:0.3;fill:#C0CCDA;enable-background:new    ;}
</style>
<g id="Livello_1_00000096052007304519290580000013576340527868282760_">
	<g>
		<path class="st0" d="M1,4c0,2.2,1.8,4.4,3.9,4.9l10.2,2.3c2.1,0.4,3.9,2.6,3.9,4.8v20c0,2.2-1.8,4.4-3.9,4.9L4.9,43.1
			C2.8,43.6,1,45.8,1,48H0V4H1z"/>
	</g>
</g>
<path class="st1" d="M0,4c0,2.7,2.2,5.3,4.7,5.7L14.9,12c1.7,0.4,3.1,2.2,3.1,3.9v20c0,1.7-1.5,3.5-3.1,3.9L4.7,42.1
	C2.1,42.7,0,45.4,0,48h2c0-1.7,1.5-3.5,3.1-3.9l10.2-2.3c2.6-0.6,4.7-3.2,4.7-5.9v-20c0-2.6-2.1-5.3-4.7-5.9L5,7.7
	C3.4,7.5,2,5.7,2,4H0z"/>
</svg>
