<?xml version="1.0" encoding="utf-8"?>
<!-- Generator: Adobe Illustrator 25.3.1, SVG Export Plug-In . SVG Version: 6.00 Build 0)  -->
<svg version="1.1" id="Livello_1" xmlns="http://www.w3.org/2000/svg" xmlns:xlink="http://www.w3.org/1999/xlink" x="0px" y="0px"
	 viewBox="0 0 160 56" style="enable-background:new 0 0 160 56;" xml:space="preserve">
<style type="text/css">
	.st0{fill:#B3B3B3;}
	.st1{fill:#034EA1;}
	.st2{fill:#FFF100;}
	.st3{fill:#A7A5A5;}
</style>
<path id="_x37_451d0ea66b5d30eb79b60d51f26bbd4" class="st0" d="M17,22.3c0,0,16.9-2.2,17.4-2.3c0.7-0.1,1.4-0.3,2-0.4
	c1.4-0.4,2.6-0.9,3.7-1.7c1.1-0.7,2.1-1.8,3.1-2.9c0.6-0.7,1.2-1.7,1.9-2.6v-0.4c-0.7,1.1-1.4,2-2.2,2.8c-1,1.1-2,2-3.1,2.6
	c-1.1,0.7-2.3,1.2-3.6,1.6c-0.6,0.1-1.2,0.3-1.9,0.4c-0.5,0.1-0.9,0.1-1.4,0.1c-0.2,0-15.9,1.7-15.9,1.7V22.3z"/>
<path id="_x30_fa91150ac0dded8ab80cdf69e16efb3" class="st0" d="M39.6,19.5c-1.1,0.6-2.3,1.1-3.6,1.3c-0.6,0.1-1.2,0.2-1.9,0.3
	c-0.4,0-0.9,0.1-1.3,0.1c-0.2,0-0.4,0-0.7,0.1c-5.2,0.5-10.3,1-15.1,1.4v1.1c4.9-0.6,10-1.2,15.2-1.8c0.2-0.1,0.5-0.1,0.7-0.1
	c0.4,0,0.9-0.1,1.3-0.1c0.7-0.1,1.4-0.2,2-0.4c1.4-0.3,2.7-0.8,3.8-1.5c1.1-0.6,2.1-1.6,3.1-2.7c0.6-0.7,1.4-1.7,2-2.6v-0.4
	c-0.8,1.1-1.5,2-2.3,2.8C41.7,18,40.7,18.8,39.6,19.5z"/>
<path id="_x31_473c15c8b6aa0ec815a389594a3cf99" class="st0" d="M42.6,19.2c-1,1-2.1,1.7-3.2,2.2c-1.1,0.5-2.3,0.9-3.6,1.1
	c-0.6,0.1-1.2,0.2-1.9,0.2L17,24.1v1.1l15-1.6l1.9-0.2c0.7-0.1,1.4-0.2,1.9-0.3c1.4-0.3,2.7-0.7,3.8-1.3c1.1-0.6,2.2-1.5,3.3-2.5
	c0.7-0.7,1.4-1.6,2.1-2.5v-0.4C44.2,17.6,43.4,18.4,42.6,19.2z"/>
<path id="fdd21f69acc8efac4fd893f888b4c01f" class="st0" d="M38.5,24.9c-1,0.6-1.7,0.9-3.1,1c-0.9,0.1-1.7,0.1-2.6,0.2
	c-0.4,0-0.8,0-1.2,0.1c-2.6,0.1-5.1,0.3-7.6,0.5l-7,0.5v1.1l7.1-0.6c2.3-0.2,5-0.4,7.6-0.6l1.9-0.1c0.8-0.1,1.4-0.1,1.9-0.2
	c1.4-0.2,2.7-0.5,3.8-0.9c1.2-0.4,2.3-1.1,3.4-1.9c1-0.7,2.4-2.2,2.4-2.2v-0.4c-0.9,0.9-1.4,1.4-2.4,2.1
	C41.4,24,39.4,24.4,38.5,24.9z"/>
<path id="c18875dad5ff077198cec8258ed4c8bf" class="st0" d="M38.9,27c-1.1,0.3-2.2,0.5-3.6,0.6c-0.6,0.1-1.2,0.1-1.9,0.1l-1.9,0.1
	c-4.7,0.2-9.3,0.5-14.5,0.7v1.1c4.9-0.4,9.7-0.8,14.5-1.1l1.9-0.1c0.7-0.1,1.3-0.1,1.9-0.2c1.4-0.1,2.6-0.4,3.7-0.8
	c1.2-0.4,2.4-0.9,3.5-1.6c0.8-0.5,1.6-1.2,2.5-1.9v0c-0.9,0.8-1.8,1-2.7,1.5C41.2,26.1,40.1,26.6,38.9,27z"/>
<path id="_x39_890797a417cec7cd09c84e6a573be63" class="st0" d="M38.7,28.8c-1.1,0.3-2.2,0.4-3.6,0.5c-0.5,0.1-1.1,0.1-1.9,0.1
	l-1.9,0.1c-4.7,0.2-9.5,0.4-14.4,0.6v1.1c4.9-0.3,9.6-0.6,14.4-1l1.9-0.1c0.7,0,1.3-0.1,1.9-0.1c1.4-0.1,2.6-0.3,3.7-0.6
	c1.2-0.3,2.4-0.8,3.6-1.4c0.9-0.5,1.7-1,2.6-1.7v-0.5c-1,0.7-1.9,1.3-2.9,1.8C41.1,28.1,39.9,28.5,38.7,28.8z"/>
<path id="d677a993361dd4aab15eaa37daafea85" class="st0" d="M38.6,30.6c-1.1,0.2-2.2,0.3-3.6,0.4c-0.5,0-1.1,0-1.8,0.1L17,31.5v1.1
	l14.3-0.7l1.9-0.1c0.7,0,1.3-0.1,1.9-0.1c1.4-0.1,2.6-0.3,3.7-0.5c1.2-0.3,2.4-0.6,3.6-1.1c0.9-0.4,1.8-0.9,2.8-1.4v-0.4
	c-1,0.6-2,1.1-2.9,1.5C41,30,39.8,30.4,38.6,30.6z"/>
<path id="_x33_f9a7c1edb65ae0605e497c84c5eba29" class="st0" d="M38.4,32.4c-2,0.3-4,0.3-6,0.3c-0.4,0-0.9,0-1.4,0L17,33v1.1
	l14.1-0.6c0.4,0,0.9,0,1.4-0.1c2-0.1,4-0.2,6-0.5c1.3-0.2,2.5-0.5,3.6-0.9c0.9-0.3,1.9-0.7,2.9-1.2v-0.4c-1,0.5-2.1,0.9-3,1.2
	C40.9,32,39.7,32.2,38.4,32.4z"/>
<path id="c3154b2effb0fc244082033e30573359" class="st0" d="M38.3,34.2c-1.9,0.1-3.7,0.1-5.6,0.1c-0.6,0-1.1,0-1.7,0
	c-4.7,0-9.3,0.1-14.1,0.1v1.1c4.5-0.1,9.3-0.3,14.1-0.5c0.6,0,1.1,0,1.7-0.1c1.9-0.1,3.7-0.1,5.6-0.3c1.3-0.1,2.5-0.3,3.6-0.6
	c1-0.2,2-0.6,3-1v-0.4c-1.1,0.4-2.1,0.7-3.1,0.9C40.8,33.9,39.6,34.1,38.3,34.2z"/>
<path id="_x30_a9f701ddd9288d1a9d1c417f48feda2" class="st0" d="M38.3,36c-0.8,0-1.6,0.1-2.6,0.1c-0.4,0-0.7,0-1.1,0L31,36
	c-2.5,0-5,0-7.3,0H17V37l6.7-0.1c2.3-0.1,4.8-0.1,7.3-0.1l3.6-0.1c1,0,2.3-0.1,3.6-0.1c1.3-0.1,2.5-0.2,3.6-0.4
	c1-0.2,2.1-0.4,3.1-0.6v-0.4c-1.1,0.2-2.2,0.4-3.2,0.6C40.7,35.8,39.5,35.9,38.3,36z"/>
<path id="bcc45671b122c86bc3bdd5cb1afdbb80" class="st0" d="M34.6,37.7L31,37.6c-4.6-0.1-9.3-0.1-14-0.2v1.1c4.5,0,9.3-0.1,14-0.1
	l3.6,0c1.2,0,2.4-0.1,3.6-0.1c2.5-0.1,4.7-0.3,6.8-0.5v-0.4c-2.1,0.2-4.4,0.4-6.9,0.4C37,37.7,35.8,37.7,34.6,37.7z"/>
<path id="_x36_33955ec45e3d5cde206484c8d5ce76f" class="st0" d="M45,39.6l-28-0.7V40h28V39.6z"/>
<path id="e0c824aa13bf4e85ca7466c8b3ed93ff" class="st0" d="M42.5,21.3c-1.1,0.9-1.9,1.5-3.2,2c-1.1,0.4-2.4,0.6-3.8,0.8
	c-0.9,0.1-1.8,0.3-2.7,0.4c-0.4,0-0.7,0-1.1,0.1L17,25.6v1.1l14.8-1.4l1.9-0.2c0.7-0.1,1.4-0.1,1.9-0.2c1.4-0.2,2.7-0.6,3.8-1.1
	c1.1-0.5,2.3-1.4,3.4-2.3c0.7-0.6,1.4-1.4,2.2-2.3v-0.4C44.1,19.8,43.3,20.6,42.5,21.3z"/>
<path id="adb03bdc58f357fd0fcfa80fd7dfbb93" class="st1" d="M53,40V24H29v16H53z"/>
<path id="_x30_665d75fa688ff94cc8ae2577e7dc89e" class="st2" d="M41.2,25.9h0.9l-0.7,0.6l0.3,0.9l-0.7-0.5l-0.7,0.5l0.3-0.9
	l-0.7-0.6h0.9l0.3-0.8L41.2,25.9z"/>
<path id="c273b84bc72b96361a391702d9b09fdf" class="st2" d="M41.2,36.9h0.9l-0.7,0.5l0.3,0.8L41,37.7l-0.7,0.5l0.3-0.8l-0.7-0.5h0.9
	l0.3-0.8L41.2,36.9z"/>
<path id="_x34_51a2febe8f138c893bb734e328ec903" class="st2" d="M43.9,36.1h0.9l-0.7,0.5l0.3,0.8L43.7,37L43,37.5l0.3-0.8l-0.7-0.5
	h0.9l0.2-0.8L43.9,36.1z"/>
<path id="_x34_9ea4902bbe968394901691615294c4d" class="st2" d="M43.9,26.7h0.9l-0.7,0.5l0.3,0.8l-0.7-0.5L43,28l0.3-0.8l-0.7-0.5
	h0.9l0.2-0.8L43.9,26.7z"/>
<path id="_x38_55ddee673c931a67ebf17823a167587" class="st2" d="M45.9,28.7h0.9l-0.7,0.5l0.3,0.8l-0.7-0.5L45,30l0.3-0.8l-0.7-0.5
	h0.9l0.3-0.8L45.9,28.7z"/>
<path id="_x34_d6ce5799218c3cbfdb8e96fc339c9a4" class="st2" d="M45.9,34.2h0.9l-0.7,0.5l0.3,0.8L45.7,35L45,35.5l0.3-0.8l-0.7-0.5
	h0.9l0.3-0.8L45.9,34.2z"/>
<path id="_x33_5ced9b65c99f0b9a79c47d9fadb8e6a" class="st2" d="M46.7,31.4h0.9l-0.7,0.5l0.3,0.8l-0.7-0.5l-0.7,0.5l0.3-0.8
	l-0.7-0.5h0.9l0.2-0.8L46.7,31.4z"/>
<path id="c182c744561546af71e459386f9efc6b" class="st2" d="M38.4,26.7h0.9l-0.7,0.5l0.3,0.8l-0.7-0.5L37.5,28l0.3-0.8l-0.7-0.5h0.8
	l0.3-0.8L38.4,26.7z"/>
<path id="_x35_470e240e08831ca76c21b9d4723a7e4" class="st2" d="M36.5,28.7h0.9l-0.7,0.5l0.3,0.8l-0.7-0.5L35.5,30l0.3-0.8l-0.7-0.5
	H36l0.3-0.8L36.5,28.7z"/>
<path id="_x34_1b521b032b1592c0abc25ea933aa5f0" class="st2" d="M35.8,31.4h0.9l-0.7,0.5l0.3,0.8l-0.7-0.5l-0.7,0.5l0.3-0.8
	l-0.7-0.5h0.9l0.3-0.8L35.8,31.4z"/>
<path id="_x37_986b2134e858b75a437f1cc4804c4bd" class="st2" d="M36.5,34.2h0.9l-0.7,0.5l0.3,0.8L36.2,35l-0.7,0.5l0.3-0.8l-0.7-0.5
	H36l0.3-0.8L36.5,34.2z"/>
<path id="_x36_f8c980976f097c090722276c352284f" class="st2" d="M38.5,36.1h0.9l-0.7,0.5l0.3,0.8L38.2,37l-0.7,0.5l0.3-0.8l-0.7-0.5
	h0.9l0.3-0.8L38.5,36.1z"/>
<path id="dece5b7a2b164d05d2f679c022a1eb7a" class="st0" d="M57,11.9c0,0,5.1,8,6,9.5c0.9,1.5,2,2.6,5.7,3.4C72.4,25.6,74,26,74,26
	v0.3c0,0-2.4-0.5-5.4-1.2c-3.1-0.7-4.3-0.9-5.7-2.8c-1.1-1.6-5.9-8.5-5.9-8.5V11.9z"/>
<path id="_x32_c74fe115193ff8a9f9ecd65c54c3cf5" class="st0" d="M57,21.1c0,0,4.6,4.8,5.9,6.2c1.4,1.5,3.2,2,5.7,2.4
	c2.4,0.4,5.4,0.9,5.4,0.9v0.3c0,0-2.8-0.5-5.4-0.9c-2.5-0.4-4.3-0.7-5.7-2c-1.3-1.2-5.9-5.5-5.9-5.5L57,21.1L57,21.1z"/>
<path id="_x34_fdd0809298065321dffb97d658d84bf" class="st0" d="M57,23.2c0,0,4.4,4.1,5.9,5.4c1.4,1.3,2.6,1.7,5.7,2.2
	c3.1,0.6,5.4,0.9,5.4,0.9v0.3c0,0-2.9-0.5-5.4-0.9c-2.6-0.4-4.2-0.6-5.7-1.8C61.1,28,57,24.6,57,24.6V23.2L57,23.2z"/>
<path id="b3f743bc401a5822694e34f49045adcb" class="st0" d="M57,25.5c0,0,5,4,5.9,4.6c0.9,0.7,2.2,1.5,5.7,2C72.2,32.7,74,33,74,33
	v0.3c0,0-3.2-0.5-5.4-0.7c-2.1-0.3-3.8-0.4-5.7-1.7c-1.9-1.3-5.9-4.1-5.9-4.1L57,25.5L57,25.5z"/>
<path id="_x37_88969e1e85c04242082a12123b246e1" class="st0" d="M57,27.8c0,0,5,3.3,5.9,3.8c0.9,0.5,2.1,1.4,5.7,1.9
	c3.6,0.5,5.4,0.7,5.4,0.7v0.3c0,0-3-0.3-5.4-0.6c-2.4-0.3-4-0.6-5.7-1.6c-1.8-1-5.9-3.4-5.9-3.4V27.8L57,27.8z"/>
<path id="_x39_fb0ba078c218d3ce2a27f3dae4f64b5" class="st0" d="M57,30c0,0,4.4,2.4,5.9,3.1c1.7,0.9,3.1,1.2,5.7,1.6
	c2.6,0.3,5.4,0.6,5.4,0.6v0.3c0,0-2.6-0.3-5.4-0.5c-2.8-0.3-3.7-0.4-5.7-1.3C61.1,33,57,31,57,31V30z"/>
<path id="_x35_4541d205c90e1be3d02abc59e22b6d7" class="st0" d="M57,32.2c0,0,3.5,1.5,5.9,2.5c2.4,1,4.3,1,5.7,1.2
	c0.6,0.1,5.4,0.6,5.4,0.6v0.3c0,0-2.8-0.2-5.4-0.4c-2.6-0.2-3.6-0.3-5.7-1c-2.1-0.7-5.9-2-5.9-2L57,32.2L57,32.2z"/>
<path id="_x32_350af9809fffc692032e6ef9bf51498" class="st0" d="M57,34.5c0,0,3.5,1.1,5.9,1.7c2.4,0.6,4.6,0.9,5.7,1
	c1.1,0.1,5.4,0.4,5.4,0.4v0.3c0,0-2.4-0.2-5.4-0.4c-2.4-0.2-4.3-0.4-5.7-0.7c-1.6-0.4-5.9-1.4-5.9-1.4L57,34.5L57,34.5z"/>
<path id="e598baede5d032f2e34d60670c615b16" class="st0" d="M57,36.8c0,0,2.9,0.5,5.9,1c2.3,0.4,5.4,0.6,5.7,0.6
	c0.3,0,5.4,0.4,5.4,0.4v0.3c0,0-3.2-0.2-5.4-0.3c-2.2-0.1-4.5-0.3-5.7-0.4c-2.8-0.3-5.9-0.7-5.9-0.7V36.8L57,36.8z"/>
<path id="_x32_86d0a44290ddc0c404be62fe688ad71" class="st0" d="M57,39.1c0,0,4.6,0.2,5.9,0.2c1.4,0,11.1,0.4,11.1,0.4V40H57V39.1z"
	/>
<path id="fe41cfd5057a2180a2339d2a39972f41" class="st0" d="M68.6,26.1c-4.1-0.9-5.1-2.4-5.7-3.3c-0.7-0.9-5.9-8.5-5.9-8.5v1.7
	c0.2,0.3,4.7,6.1,5.9,7.7c1.4,1.8,3.6,2.2,5.7,2.7c2.1,0.4,5.4,1.1,5.4,1.1v-0.2C74,27.2,69.7,26.3,68.6,26.1z"/>
<path id="_x39_c944ed77557a7f42ba317d54127bda2" class="st0" d="M68.6,27.3c-3.4-0.6-4.8-1.7-5.7-3c-1-1.3-5.9-7.8-5.9-7.8v1.6
	c0.2,0.2,4.7,5.6,5.9,6.9c1.4,1.6,3.4,2,5.7,2.5c2.4,0.4,5.4,1,5.4,1v-0.2C74,28.3,70.6,27.7,68.6,27.3z"/>
<path id="b50dfaa29c2ff4f613aeb4c9acd9377d" class="st0" d="M68.6,28.5c-3.5-0.7-4.2-1.2-5.7-2.9c-0.9-1-5.7-6.7-5.9-6.9v1.5
	c0,0,4.5,4.8,5.9,6.2c1.9,1.9,3.6,2,5.7,2.4c2.1,0.4,5.4,1,5.4,1v-0.2C74,29.5,70,28.8,68.6,28.5z"/>
<path id="c117457e1d5a9fd4c9d1306d1e2a60d5" class="st3" d="M84,24.6c0-0.2,0-0.3,0.1-0.4c0.1-0.1,0.2-0.2,0.5-0.2h10.6
	c0.2,0,0.3,0.1,0.5,0.2c0.1,0.1,0.2,0.2,0.2,0.4v2.8c0,0.1,0,0.3-0.1,0.4c-0.1,0.1-0.2,0.2-0.5,0.2H89v1.9h5.4
	c0.2,0,0.3,0.1,0.5,0.2c0.1,0.1,0.2,0.2,0.2,0.4v2.8c0,0.1,0,0.3-0.1,0.4c-0.1,0.1-0.2,0.2-0.5,0.2H89v2.4h6.4
	c0.2,0,0.3,0.1,0.5,0.2c0.1,0.1,0.2,0.2,0.2,0.4v2.8c0,0.1,0,0.3-0.1,0.4c-0.1,0.1-0.2,0.2-0.5,0.2H84.7c-0.2,0-0.4-0.1-0.5-0.2
	c-0.1-0.1-0.1-0.2-0.1-0.4V24.6z"/>
<path id="d11b234b0edbe8ab1aacff3b8e319af0" class="st3" d="M98.1,32c0-0.9,0.1-1.9,0.3-2.8c0.2-0.9,0.6-1.8,1.1-2.6
	c0.5-0.7,1.3-1.4,2.2-1.9c1-0.5,2.2-0.7,3.7-0.7c0.9,0,1.7,0.1,2.5,0.2c0.8,0.1,1.5,0.3,2.1,0.6c0.3,0.1,0.5,0.3,0.7,0.4
	c0.2,0.2,0.2,0.5,0.1,0.8l-0.4,1.7c-0.1,0.3-0.2,0.5-0.3,0.5c-0.1,0.1-0.4,0.1-0.7,0c-0.7-0.1-1.4-0.1-2-0.2c-0.6,0-1.1-0.1-1.5-0.1
	c-0.6,0-1,0.1-1.4,0.3c-0.4,0.2-0.7,0.5-0.9,0.8c-0.2,0.3-0.4,0.7-0.5,1.2c-0.1,0.5-0.1,1-0.1,1.5c0,0.7,0,1.3,0.1,1.9
	c0.1,0.5,0.2,0.9,0.5,1.3c0.2,0.3,0.5,0.6,0.9,0.7c0.4,0.2,0.8,0.2,1.4,0.2c0.3,0,0.6,0,0.9,0c0.3,0,0.5,0,0.8,0
	c0.3,0,0.6,0,0.9-0.1s0.7-0.1,1.1-0.1c0.4,0,0.6,0,0.7,0c0.1,0,0.2,0.2,0.3,0.6l0.4,1.5c0.1,0.4,0.1,0.7-0.1,0.8
	c-0.2,0.2-0.4,0.4-0.7,0.5c-0.6,0.3-1.3,0.5-2.2,0.6c-0.8,0.2-1.7,0.2-2.6,0.2c-1,0-1.9-0.1-2.7-0.3c-0.8-0.2-1.4-0.5-2-0.9
	s-1-0.8-1.4-1.3c-0.4-0.5-0.6-1-0.8-1.7c-0.2-0.6-0.4-1.2-0.4-1.9C98.1,33.3,98.1,32.6,98.1,32z"/>
<path id="f8b0a1134906faaf8d94c283d3faa4fc" class="st3" d="M121.4,24.6c0-0.2,0-0.3,0.1-0.4c0.1-0.1,0.2-0.2,0.5-0.2h3.6
	c0.3,0,0.4,0.1,0.5,0.2c0.1,0.1,0.1,0.3,0.1,0.4v14.9c0,0.1,0,0.2-0.1,0.4c-0.1,0.1-0.2,0.2-0.5,0.2H122c-0.2,0-0.4-0.1-0.5-0.2
	c-0.1-0.1-0.1-0.2-0.1-0.4v-5.7h-3.6v5.7c0,0.1,0,0.2-0.1,0.4c-0.1,0.1-0.2,0.2-0.5,0.2h-3.6c-0.2,0-0.4-0.1-0.5-0.2
	c-0.1-0.1-0.1-0.3-0.1-0.4V24.6c0-0.2,0-0.3,0.1-0.4c0.1-0.1,0.2-0.2,0.5-0.2h3.6c0.3,0,0.4,0.1,0.5,0.2c0.1,0.1,0.1,0.3,0.1,0.4
	v5.3h3.6L121.4,24.6L121.4,24.6z"/>
<path id="_x31_06003ac87b28815efd2c0935d3bb037" class="st3" d="M143.1,31.8c0,0.6,0,1.2-0.1,1.8c-0.1,0.6-0.2,1.2-0.4,1.9
	c-0.2,0.6-0.5,1.2-0.8,1.7c-0.3,0.6-0.8,1-1.4,1.5c-0.6,0.4-1.2,0.7-2,1c-0.8,0.2-1.8,0.3-2.9,0.3c-1.1,0-2.1-0.1-2.9-0.4
	c-0.8-0.2-1.5-0.6-2-1c-0.6-0.4-1-0.9-1.3-1.5c-0.3-0.6-0.6-1.1-0.8-1.7c-0.2-0.6-0.3-1.2-0.3-1.9c-0.1-0.6-0.1-1.2-0.1-1.8
	c0-0.5,0-0.9,0.1-1.5c0.1-0.6,0.2-1.1,0.3-1.7c0.2-0.6,0.5-1.1,0.8-1.7c0.3-0.6,0.8-1,1.3-1.5c0.6-0.4,1.2-0.8,2-1
	c0.8-0.3,1.7-0.4,2.8-0.4c1.6,0,2.9,0.2,3.9,0.7c1,0.5,1.8,1.1,2.3,1.8c0.6,0.7,0.9,1.6,1.1,2.5C143,30,143.1,30.9,143.1,31.8z
	 M138,32c0-0.7,0-1.4-0.1-1.9c-0.1-0.5-0.2-0.9-0.4-1.3c-0.2-0.3-0.5-0.6-0.8-0.7c-0.3-0.1-0.7-0.2-1.2-0.2c-0.8,0-1.5,0.3-1.8,0.9
	c-0.3,0.6-0.5,1.7-0.5,3.2c0,1.4,0.2,2.5,0.5,3.1c0.3,0.6,0.9,0.9,1.8,0.9c0.9,0,1.5-0.3,1.9-0.9C137.9,34.5,138,33.5,138,32z"/>
</svg>
