<?xml version="1.0" encoding="utf-8"?>
<!-- Generator: Adobe Illustrator 26.2.1, SVG Export Plug-In . SVG Version: 6.00 Build 0)  -->
<svg version="1.1" xmlns="http://www.w3.org/2000/svg" xmlns:xlink="http://www.w3.org/1999/xlink" x="0px" y="0px"
	 viewBox="0 0 158 50" style="enable-background:new 0 0 158 50;" xml:space="preserve">
<style type="text/css">
	.st0{fill:none;}
	.st1{fill:#939393;}
	.st2{font-family:'FrutigerLTStd-Bold';}
	.st3{font-size:11px;}
	.st4{fill:#29548A;}
	.st5{display:none;}
	.st6{display:inline;}
	.st7{fill:#008DCA;}
</style>
<g id="Livello_2">
	<g>
		<rect x="60" y="0" class="st0" width="88" height="50"/>
		<text transform="matrix(1 0 0 1 60 16.1248)"><tspan x="0" y="0" class="st1 st2 st3">FOOD AND </tspan><tspan x="0" y="13" class="st1 st2 st3">AGRICOLTURE</tspan><tspan x="0" y="26" class="st1 st2 st3">ORGANIZATION</tspan></text>
	</g>
	<path class="st4" d="M31,44c-10.5,0-19-8.5-19-19c0-10.5,8.5-19,19-19c10.5,0,19,8.5,19,19C50,35.5,41.5,44,31,44 M30.9,17.5
		c0,0,1.5,1.6,1.5,2.9c0,1.4-1.1,1.7-1.5,1.7c0,0,0,0-0.1,0h0c0,0,0,0-0.1,0c-0.4,0-1.5-0.3-1.5-1.7C29.4,19.1,30.9,17.5,30.9,17.5
		 M16.6,26.1h1.7v-3.2h2.9v-1.3h-2.9v-1.8h3v-1.3h-4.7V26.1z M32.5,17.7h1.8l-2.1-7.7h-2.3l-2.2,7.7h1.7l0.5-1.7h2.2L32.5,17.7z
		 M31.7,14.7h-1.6l0.7-3.3H31L31.7,14.7z M39.8,22.2c0,2.2,1,4,3.2,4c2.2,0,3.3-1.7,3.3-4c0-2.2-1.1-4-3.3-4
		C40.8,18.3,39.8,20,39.8,22.2 M41.6,22.2c0-1.5,0.4-2.7,1.4-2.7c1,0,1.4,1.2,1.4,2.7c0,1.5-0.4,2.7-1.4,2.7
		C42,24.9,41.6,23.7,41.6,22.2 M30.2,41.9c0.1-0.7,0.2-1.9,0.2-3.3v-0.2c0-2-0.1-2.6-1.4-3.1c-2-0.7-2.8-2.9-2.4-5.7l-6.8-17.2
		c-3.5,3.1-5.7,7.6-5.7,12.7C14.1,34,21.2,41.5,30.2,41.9 M31,30.9c-2.7-0.6-3.7-3.1-3.7-5.3l-5.9-14.5c-0.4,0.3-0.8,0.6-1.1,0.9
		c1.3,3.1,7.2,17,7.2,17c1,2.5,2.9,1.7,3.4,3.7c0.1,0.5,0.1,0.7,0.1,0.7h0.2c0,0,0-0.2,0.1-0.7c0.5-2.1,2.3-1.2,3.4-3.7
		c0,0,5.9-13.9,7.2-17c-0.4-0.3-0.7-0.6-1.1-0.9l-5.9,14.5C34.7,27.8,33.7,30.3,31,30.9L31,30.9z M31,26.5c-1.1-0.3-2.6-1.4-2.7-2.8
		c-0.1-0.6-0.1-0.7,0-1.8L23,10.1c-0.4,0.2-0.8,0.5-1.2,0.7c1.6,3.5,6.3,14.1,6.3,14.2c0.7,1.6,2.1,1.6,2.5,2.6
		c0.3,0.6,0.3,1.1,0.3,1.1h0.2c0,0,0-0.5,0.3-1.1c0.5-0.9,1.8-1,2.5-2.6c0,0,4.8-10.7,6.3-14.2c-0.4-0.3-0.8-0.5-1.2-0.7l-5.2,11.8
		c0.1,1.1,0,1.3,0,1.8C33.6,25.1,32.2,26.3,31,26.5L31,26.5z M31.1,24.5l0.1-0.6c0.3-1.5,1.4-1.3,2.2-2.8c0,0,0,0,0,0
		c0-0.1,3.7-7.9,5.2-11.2c-2.3-1.1-4.8-1.8-7.5-1.8c-2.7,0-5.3,0.6-7.5,1.8c1.5,3.3,5.2,11.2,5.2,11.2c0,0,0,0,0,0
		c0.7,1.5,1.8,1.3,2.2,2.8l0.1,0.6H31.1z M47.9,25c0-5-2.2-9.6-5.7-12.7l-6.8,17.2c0.4,2.8-0.4,5.1-2.4,5.7
		c-1.3,0.4-1.4,1.1-1.4,3.1v0.2c0,1.4,0.1,2.6,0.2,3.3C40.8,41.5,47.9,34,47.9,25 M19.4,30c0,0,0.3,0.5,0.5,0.9
		c0.2,0.4,0.5,0.8,0.5,0.8L19.9,32c0,0-0.3-0.6-0.6-1.2c-0.1,0-0.6,0.3-0.7,0.4c0.1,0.1,0.6,1.2,0.6,1.2l-0.5,0.3
		c0,0-0.6-1.1-0.6-1.2c-0.1,0-1.2,0.6-1.2,0.6l-0.3-0.5L19.4,30L19.4,30z M21.2,32.9l0.4,0.5l-2.5,2.1l-0.4-0.5L21.2,32.9L21.2,32.9
		z M23.5,35l0.5,0.3l-0.6,3.4l-0.6-0.3c0,0,0.1-0.7,0.2-0.8c0,0-0.4-0.2-0.7-0.4c-0.3-0.2-0.6-0.5-0.7-0.5c-0.1,0-0.7,0.4-0.7,0.4
		l-0.5-0.4L23.5,35L23.5,35z M22.1,36.5c0.1,0.1,0.3,0.2,0.5,0.4c0.2,0.2,0.4,0.3,0.5,0.3c0-0.1,0.3-1.3,0.3-1.5
		C23.2,35.8,22.2,36.4,22.1,36.5 M25.5,36.3c0,0,0.5,0.3,1.3,0.5c0.5,0.2,0.9,0.3,1.4,0.4L28,37.7c0,0-0.4-0.1-1.1-0.3
		c0,0.1-0.9,2.5-0.9,2.5l-0.6-0.2c0,0,0.8-2.4,0.9-2.5c-0.6-0.2-1-0.5-1-0.5L25.5,36.3z M35.7,36.9c0.2,0.1,0.4,0.3,0.4,0.6
		c0,0.1,0.1,0.2,0.1,0.3c0,0.4-0.3,0.8-0.9,1c0,0-0.3,0.1-0.4,0.1c0,0.1,0.4,1.2,0.4,1.2l-0.6,0.1l-1-3.1l0.9-0.3
		C35.1,36.8,35.4,36.8,35.7,36.9 M34.5,37.5c0,0.1,0.3,0.8,0.3,0.9c0.1,0,0.4-0.1,0.4-0.1c0.1,0,0.3-0.1,0.4-0.3c0-0.1,0-0.1,0-0.2
		c0-0.1,0-0.1,0-0.2c0-0.1-0.1-0.2-0.2-0.2c-0.2-0.1-0.4-0.1-0.6,0C34.8,37.4,34.6,37.5,34.5,37.5 M37.6,35.6l2.8,2L39.9,38
		c0,0-0.6-0.4-0.6-0.5c0,0-0.3,0.2-0.6,0.4c-0.3,0.2-0.6,0.3-0.6,0.4c0,0.1,0.1,0.8,0.1,0.8l-0.5,0.3l-0.5-3.4L37.6,35.6z
		 M37.9,37.8c0.1,0,0.3-0.2,0.5-0.3c0.2-0.1,0.3-0.2,0.4-0.3c-0.1-0.1-1-0.7-1.2-0.9C37.8,36.5,37.9,37.6,37.9,37.8 M40.8,32.8
		l2.4,2.2l-0.4,0.5c0,0-2.3-0.7-2.6-0.8c0.3,0.2,1.7,1.7,1.7,1.7l-0.4,0.4l-2.3-2.3l0.5-0.5c0,0,2.2,0.7,2.6,0.7
		c-0.3-0.2-1.8-1.6-1.8-1.6L40.8,32.8z M41.9,31.2l2.8,1.6l-0.3,0.5l-2.8-1.6L41.9,31.2z M43.1,28.5l0.5,0.3l0,0.1
		c-0.2,0.2-0.2,0.3-0.3,0.5c0,0.1-0.1,0.3,0,0.4c0,0.1,0.1,0.1,0.2,0.2c0.2,0.1,0.4-0.1,0.6-0.3c0.3-0.3,0.7-0.7,1.3-0.5
		c0.6,0.2,0.8,0.7,0.6,1.5c-0.1,0.2-0.2,0.4-0.3,0.6l0,0L45,30.9l0.1-0.1c0.1-0.1,0.3-0.3,0.3-0.6c0.1-0.2,0.1-0.6-0.3-0.7
		c-0.3-0.1-0.5,0.1-0.7,0.4c-0.3,0.3-0.6,0.6-1.2,0.5c-0.2-0.1-0.4-0.2-0.5-0.4c-0.1-0.2-0.1-0.6,0-0.9C42.9,28.9,43,28.7,43.1,28.5
		L43.1,28.5z"/>
</g>
<g id="Livello_2_copia" class="st5">
	<g class="st6">
		<rect x="60" y="0" class="st0" width="88" height="50"/>
		<text transform="matrix(1 0 0 1 60 22.6248)"><tspan x="0" y="0" class="st1 st2 st3">WORLD HEALTH </tspan><tspan x="0" y="13" class="st1 st2 st3">ORGANIZATION</tspan></text>
	</g>
	<g class="st6">
		<path id="ee97643f57407a4bae074b976d894997" class="st7" d="M28.3,43.9l1,0.1c0,0,1.3-3,4.9-3.3c2.2-0.1,4.2,1.1,6.5,1.2
			c2.8,0.2,4.8-0.4,6.4-2c-1.7,1-3.8,0.6-6.1,0c-1.5-0.4-3.1-0.5-4.3-0.5C31.3,39.5,28.3,43.9,28.3,43.9z"/>
		<path id="_x32_e31b4b297a42c60245b4e314b873598" class="st7" d="M44.5,33.6c-0.5,0.5-1.1,1.2-1.8,2.7c-0.7,1.4-0.7,2-1.2,3
			c1.4-0.5,2.4,0.5,6-0.8c1.6-0.6,2.8-2.2,3.4-3.6c-1.2,1.2-2.3,1.8-3.8,2c-1.4,0.2-2.4,0.3-3.7,1.1c0.8-0.8,1-1.3,1.4-2.5
			c0.5-1.2,0.4-2.3,0.9-3.2C45.3,32.8,45,33.1,44.5,33.6z"/>
		<path id="f7dbca6b5dc7654daf1bab2624dcf922" class="st7" d="M46.3,31.8c-0.4,2-0.3,3.6-1.2,4.9c1.2-1.1,2.6-1.1,4.4-1.9
			c2.1-1.1,3.2-2.9,3.8-5.6c-0.5,1.2-1.6,2.3-3,3.2c-1.1,0.7-2.3,1.1-3.2,2.2c0.5-0.6,0.6-0.9,0.7-1.6c0.4-1.8-0.2-2.9,0-4.8
			C47.4,29,46.5,30.6,46.3,31.8z"/>
		<path id="_x35_379c6e4247fed036d67e46e9801b77d" class="st7" d="M48.2,26c-0.1,3,1,3.7,0.2,6.6c0.8-1.1,1.7-1.5,3-2.6
			c1.4-1.3,2.7-3.4,2.6-6.2c-0.3,0.8-1.1,2.3-2.1,3.3c-1,1.1-1.7,2.3-2.2,3.2c1-3.4-0.8-4.7-1-6.8C48.7,24.4,48.4,25.4,48.2,26z"/>
		<path id="b987f2c9f2d0142d5395ede0b329be72" class="st7" d="M48.9,22.5c-0.3-1-0.2-1.6-0.4-2.7c0.4,1,2.7,2.8,2.5,6.2
			c0.1-0.6,0.6-2.5,1.2-3.9c0.6-1.1,1-2.1,1-3.7c0.6,2,0.6,3.2,0.3,4.3c-0.3,1-1,1.8-1.5,2.6c-0.4,0.5-1.1,1.6-1.5,2.6
			C50.5,25.7,49.2,23.8,48.9,22.5z"/>
		<path id="_x39_a934cd0187cd831c3e9bbf446b3d42f" class="st7" d="M48.1,17.9c-0.5-0.9-0.6-1.6-1.1-2.7c0.4,0.5,0.7,0.7,1.5,1.5
			c1.1,1.1,2.1,2.2,2.6,4.2c0-1.2,0.2-2,0.4-3.3c0.2-1.2,0.2-2.6-0.4-4.2c1,1.3,1.9,3.9,1.4,5.7c-0.4,1.7-1,2.5-1.2,3.7
			C50.6,20.4,48.8,19,48.1,17.9z"/>
		<path id="_x30_9ad08bad06fac3d0ad427b2543dc48a" class="st7" d="M48.8,15.7c-0.6-0.4-1.8-1.3-2.5-2.1c-0.7-0.8-1-1.5-1.4-2.2
			c1,0.9,1.4,1.2,2.4,1.8c0.9,0.5,2.1,1.2,2.6,2.3c-0.3-0.8-0.4-1.9-0.6-2.9c-0.1-1.4-0.7-2.2-1-2.7c1.2,1.1,2.1,2,2.4,4
			c0.4,2-0.1,3.4,0.1,4.5C50,17,49.2,16.2,48.8,15.7z"/>
		<path id="f4fe467aa1bf53e5a8a4f7ce5e59a6b4" class="st7" d="M48.9,13.7c-0.6-1.8-1.1-2.9-2.4-3.9c-1.5-1.3-3.2-2-3.9-2.3
			c1.2,0.9,1.1,1.8,3,3.4C46.9,12.2,47.8,12.3,48.9,13.7z"/>
		<path id="_x32_c3037fcd9786fb0d309b59c37aa5fda" class="st7" d="M37.8,43.9L36.7,44c0,0-1.3-3-4.9-3.3c-2.2-0.1-4.2,1.1-6.5,1.2
			c-2.8,0.2-4.8-0.4-6.4-2c1.7,1,3.8,0.6,6.1,0c1.5-0.4,3.1-0.5,4.3-0.5C34.7,39.5,37.8,43.9,37.8,43.9z"/>
		<path id="_x37_8f0014222f9619bb65a49698828ab3d" class="st7" d="M21.5,33.6c0.5,0.5,1.1,1.2,1.8,2.7c0.7,1.4,0.7,2,1.2,3
			c-1.4-0.5-2.4,0.5-6-0.8c-1.6-0.6-2.8-2.2-3.4-3.6c1.2,1.2,2.3,1.8,3.8,2c1.4,0.2,2.4,0.3,3.7,1.1c-0.8-0.8-1-1.3-1.4-2.5
			c-0.5-1.2-0.4-2.3-0.9-3.2C20.8,32.8,21,33.1,21.5,33.6z"/>
		<path id="c7cb9e2516105c2c71beb930728c69a3" class="st7" d="M19.7,31.8c0.4,2,0.3,3.6,1.2,4.9c-1.2-1.1-2.6-1.1-4.4-1.9
			c-2.1-1.1-3.2-2.9-3.8-5.6c0.5,1.2,1.6,2.3,3,3.2c1.1,0.7,2.3,1.1,3.2,2.2c-0.5-0.6-0.6-0.9-0.7-1.6c-0.4-1.8,0.2-2.9,0-4.8
			C18.5,29,19.4,30.6,19.7,31.8z"/>
		<path id="_x31_7bda718223cde7741e673eb15a02766" class="st7" d="M17.7,26c0.1,3-1,3.7-0.2,6.6c-0.8-1.1-1.7-1.5-3-2.6
			c-1.4-1.3-2.7-3.4-2.6-6.2c0.3,0.8,1.1,2.3,2.1,3.3c1,1.1,1.7,2.3,2.2,3.2c-1-3.4,0.8-4.7,1-6.8C17.4,24.4,17.7,25.4,17.7,26z"/>
		<path id="_x35_7c1db5af4539cce9fc1a7a1d59223d8" class="st7" d="M17.1,22.5c0.3-1,0.2-1.6,0.4-2.7c-0.4,1-2.7,2.8-2.5,6.2
			c-0.1-0.6-0.6-2.5-1.2-3.9c-0.5-1.1-1-2.1-1-3.7c-0.6,2-0.6,3.2-0.3,4.3c0.3,1,1,1.8,1.5,2.6c0.4,0.5,1.1,1.6,1.5,2.6
			C15.5,25.7,16.9,23.8,17.1,22.5z"/>
		<path id="aa07b06f0fd215faaabd17b6cbb00339" class="st7" d="M17.7,18.2c0.6-0.8,0.8-1.9,1.3-3c-0.4,0.5-0.7,0.7-1.5,1.5
			c-1.1,1.1-2.1,2.2-2.6,4.2c0-1.2-0.2-2-0.4-3.3c-0.2-1.2-0.2-2.6,0.4-4.2c-1,1.3-1.9,3.9-1.4,5.7c0.4,1.7,1,2.5,1.2,3.7
			C15.5,20.4,16.9,19.3,17.7,18.2z"/>
		<path id="_x33_bbb7b10cdad791c04d89f7d068528f8" class="st7" d="M17.3,15.7c0.6-0.4,1.8-1.3,2.5-2.1s1-1.5,1.4-2.2
			c-1,0.9-1.4,1.2-2.4,1.8c-0.9,0.5-2.1,1.2-2.6,2.3c0.3-0.8,0.4-1.9,0.6-2.9c0.1-1.4,0.7-2.2,1-2.7c-1.2,1.1-2.1,2-2.4,4
			c-0.4,2,0.1,3.4-0.1,4.5C16.1,17,16.8,16.2,17.3,15.7z"/>
		<path id="f91668e4ab8e4bc43c27029914da06e2" class="st7" d="M17,13.7c0.6-1.8,1.1-2.9,2.4-3.9c1.5-1.3,3.2-2,3.9-2.3
			c-1.2,0.9-1.1,1.8-3,3.4C19,12.2,18.2,12.3,17,13.7z"/>
		<path id="_x33_a39939ab49a5a10743b47bddde887ee" class="st7" d="M36.4,14.3c-0.7-0.3-1.4-0.5-2.2-0.6c0,0.1,0,0.1,0,0.2
			c0.8,0.1,1.4,0.3,2.1,0.6C36.4,14.4,36.4,14.4,36.4,14.3z M34.5,19h-0.3l-0.1,0.1H34v0.5l0.3-0.1L34.5,19z M35.4,19.2L35.4,19.2
			L35.4,19.2L35,19.6h0.2v-0.2L35.4,19.2l0.2-0.1L35.5,19L35.4,19.2z M35.8,19H36V19L35.8,19v-0.3h-0.2l0.1,0.1L35.8,19L35.8,19z
			 M34.2,25.7L34.2,25.7v0.2c0.5-0.2,0.5-0.4,0.5-0.4c0-0.2-0.3-0.4-0.7-0.6c0,0.1,0,0.3,0,0.4l0.1,0.1H34c0,0.1,0,0.2,0,0.2
			s0.1,0,0.1-0.1L34.2,25.7C34.1,25.7,34.2,25.7,34.2,25.7z M34.3,25.2L34.3,25.2L34.3,25.2z M26.4,23.2l0.1,0.3l-0.1,0.1v0.2v0.3
			l-0.1,0.2l0.1,0.4l0,0v-0.4l0.1-0.6l-0.1-0.3V23.2z M26.6,24.7L26.6,24.7L26.6,24.7l-0.2-0.1l0,0v0.2l0.1,0.1V25l0.1,0.1l0.1,0.2
			h0.1V25l-0.1-0.1L26.6,24.7z M33.9,31.7L33.9,31.7L33.9,31.7z M31.7,19.7L31.7,19.7c-0.2,0.2-0.4,0.3-0.5,0.4
			c0,0.2,0.1,0.5,0.3,0.7c0.1,0.1,0.2,0.2,0.3,0.2l0.3-0.1v-1.3H32v-0.1l0.1-0.1v-0.1L32,19.4l-0.1,0.2L31.7,19.7z M31.7,20.2
			L31.7,20.2L31.7,20.2L31.7,20.2z M26.1,15.8c0-0.1,0-0.2,0.1-0.2l-0.1-0.2c-0.1,0-0.2,0-0.3,0L26.1,15.8z M30.8,23.7
			c-0.1,0-0.1,0-0.2-0.1v0.2L30.8,23.7z M30.6,23.6C30.6,23.6,30.5,23.6,30.6,23.6l-0.1,0.2L30.6,23.6z M40.9,23.9L40.7,24l0.1,0.1
			H41L40.9,23.9z M46.6,16.8c-0.8-1.8-1.8-3.4-3.1-4.8c-1.3-1.4-2.9-2.5-4.6-3.2c-1.3-0.6-2.8-1-4.4-1.1c0,0.1,0,0.1,0,0.2
			c1.4,0.1,3,0.5,4.3,1.1c1.7,0.7,3.3,1.8,4.6,3.2l-1.6,1.7v-0.1h-0.2l-0.2-0.1L41,13.6l0.4-0.1l-0.1-0.1h-0.2l0.1-0.2L41,12.9
			l-0.5-0.7l-0.4-0.3L40,11.8h-0.2v-0.1l-0.4-0.2l-0.2,0.2c0.3,0.5,0.5,1.1,0.5,1.6c0,0.4,0,0.7-0.1,1.1l0.1-0.1l0.5,0.8h-0.3
			l0.2,0.2l-0.5,0.5l-0.3-0.4v-0.3c-0.1,0.2-0.2,0.4-0.3,0.5v0.1h0.3v0.1L39.1,16c-0.1-0.1-0.2-0.2-0.3-0.3c0,0.1-0.1,0.1-0.1,0.2
			c0.1,0.1,0.2,0.2,0.3,0.2l-1.9,2c-0.2-0.2-0.3-0.3-0.5-0.4c-0.1,0-0.1,0.1-0.2,0.1c0.2,0.1,0.4,0.3,0.6,0.5l-0.3,0.4v-0.1
			l-0.2,0.1h-0.2v-0.2l-0.2,0.1L36,18.8l0.1,0.1l0.2-0.2l0.2,0.1l0,0h0.2l-0.6,0.6l-0.7,0.2l-0.2,0.2l-0.1,0.1v0.1h0.1l0.1,0.1v0.2
			l-0.1,0.1H35l-0.4,0.1c-0.1-0.1-0.1-0.1-0.2-0.2l0,0l-0.1-0.1C34.3,20,34.1,20,34,19.9v0.8c0,0.3,0,0.5,0,0.7h0.1l0.1,0.1L34,21.6
			c0,0.1,0,0.2,0,0.3l0.3-0.3l-0.1,0.2h0.1l0.1,0.3l0.2,0.2l-0.3-0.2v0.2c0.6,0.2,1.2,0.6,1.8,1c0.9,0.7,1.3,1.7,1.2,2.6
			c-0.1,0.7-0.5,1.2-1,1.6v0.1l-0.1,0.2H36l-0.2,0.1L35.4,28H35l-0.1,0.2l0.1,0.1c-0.1,0-0.1,0-0.2,0.1h-0.3l-0.1-0.1h-0.3
			c-0.1,0-0.1,0-0.2,0.1v0.2c0,0.1,0,0.6,0,1.3c1,0.5,2.1,1.3,2.1,3.5c0,0,0,0.4-0.1,0.7l0.4,0.1c-0.8,0.3-1.6,0.4-2.5,0.5
			c0,0.1,0,0.1,0,0.2c0.9-0.1,1.8-0.2,2.7-0.5l0.2,0.1l0.2,0.2l0.2-0.1l0.4-0.1l0.1-0.1l0.4-0.2l0.4-0.3l0.5-0.5v-0.1
			c0.8-0.5,1.5-1.1,2.3-1.8l1.9,2c-1.2,1.3-2.8,2.4-4.5,3c-1.7,0.8-3.7,1.2-5.6,1.2c-1.9,0-3.9-0.4-5.6-1.2c-1.6-0.7-3.2-1.8-4.5-3
			l1.9-2c1,1.1,2.3,1.9,3.7,2.5c1.2,0.5,2.5,0.8,3.8,0.9c0-0.1,0-0.1,0-0.2c-2.7-0.2-5.3-1.4-7.2-3.4l0.4-0.4l0.4,0.3l0.7-0.1
			l0.3-0.3h0.4h0.4l0.2-0.1v-0.2l-0.2-0.2l-0.3-0.5l-0.1-0.1l-0.2-0.3l0.1-0.1c1.4,1.5,3.3,2.3,5.3,2.5c0-0.1,0-0.1,0-0.2
			c-1.9-0.2-3.8-1.1-5.1-2.5l1.9-2c0.5,0.5,1,0.9,1.7,1.2c0-0.1,0-0.1,0.1-0.2c-0.6-0.3-1.1-0.7-1.6-1.1l1.9-2
			c0.3,0.3,0.7,0.5,1,0.6v-0.2c-0.4-0.1-0.7-0.3-0.9-0.6l0.1-0.1h0.1l0.1-0.1H32l0.1-0.1h0.2v-0.4L31.7,24l0,0h-0.2l-0.6,0.3
			l-0.1,0.3l0,0c-0.2-0.3-0.4-0.6-0.6-1v-0.1c-0.2-0.1-0.4-0.2-0.5-0.3l-0.1,0.1l-0.1-0.1l-0.2,0.1l-0.1-0.1l0.1-0.1h0.2
			c-0.6-0.5-1-1.1-1.1-1.8c-0.1-0.5-0.1-0.9-0.1-1.4L28.1,20h-0.2c0.2-0.4,0.4-0.7,0.7-1c0.1-0.2,0.2-0.5,0.4-0.7l0,0l-1.9-2
			c1.3-1.4,3-2.2,4.9-2.5c0-0.1,0-0.1,0-0.2c-1.8,0.3-3.6,1.2-5,2.6l-0.5-0.5c0,0.1-0.1,0.2-0.1,0.2l0.4,0.4
			c-1.5,1.7-2.5,3.9-2.5,6.3h-2.7c0-3,1.1-6.1,3.3-8.3l0.8,0.8c0.1,0,0.1,0,0.2,0h0.1L25,14.3c0.6-0.6,1.2-1.1,1.9-1.6
			c0-0.1,0.1-0.2,0.2-0.4c-0.8,0.5-1.5,1.1-2.2,1.8l-1.9-2c1.3-1.4,3-2.4,4.6-3.2c1.3-0.6,2.8-1,4.3-1.1V7.5c-1.4,0.1-3,0.5-4.3,1.1
			c-1.7,0.8-3.3,1.9-4.7,3.2c-1.3,1.4-2.4,3-3.1,4.8c-0.8,1.9-1.1,3.9-1.1,5.9s0.4,4,1.1,5.9c0.8,1.8,1.8,3.4,3.1,4.8
			c1.3,1.4,3,2.5,4.7,3.2c1.8,0.8,3.8,1.2,5.7,1.2s3.9-0.4,5.7-1.2c1.7-0.8,3.3-1.9,4.7-3.2c1.3-1.4,2.4-3,3.1-4.8
			c0.8-1.9,1.1-3.9,1.1-5.9C47.7,20.7,47.2,18.7,46.6,16.8z M24.8,31.1c-0.2-0.2-0.4-0.4-0.6-0.7l0.2,0.1l0.2-0.1l0.5,0.3h0.1
			L24.8,31.1z M25,24.5l-0.3,0.1l-0.1-0.1l-0.1-0.1l-0.1-0.1c-0.1-0.5-0.1-1-0.1-1.3h1.1l0,0l-0.2,0.3h-0.1L25,23.8l0.2,0.3L25,24.5
			z M26,28.5L26,28.5L26,28.5h0.2H26z M26.7,29.1L26.6,29C26.7,29,26.7,29,26.7,29.1L26.7,29.1z M26.9,29c-0.2-0.2-0.3-0.4-0.5-0.6
			l0.1-0.3v-0.4l-0.3-0.4v-0.5l-0.1-0.3l0.1-0.1L25.9,26v-0.2l-0.2-0.3h-0.2h0.3l-0.1-0.1L25.5,25L25.2,25l0.1-0.3l-0.1-0.6l0.1-0.4
			h0.4l0.1-0.2v-0.4H26h0.1l0.2,0.1v-0.1h0.7c0,0.2,0,0.4,0,0.6l0,0h-0.2L26.6,24h0.2l0.2-0.1c0.2,1.3,0.8,2.5,1.6,3.4L26.9,29z
			 M26.1,22.5l0.1-0.5l0.4-0.2l0.5,0.1l0.1,0.2c0,0.2,0,0.4,0,0.6h-0.7v-0.1L26.1,22.5z M28.1,23.9l0.3,0.1l0.2,0.2l0.1-0.1l0.3,0.2
			l0.1,0.1l-0.2-0.1v0.1l0.2,0.1l0.2,0.2v-0.1v-0.2l0.1-0.1l0.1-0.1l-0.2-0.3l0.2,0.1l0.1,0.2l0.1,0.3h0.2l-0.5,0.1l0.2,0.4h0.1l0,0
			v-0.2h0.2l0.1-0.3l0.1-0.4h0.1l0.1-0.1c0.1,0.3,0.3,0.6,0.6,0.8l-1.9,2c-0.9-0.9-1.4-2-1.5-3.3h0.1l0.4,0.4L28.1,23.9z M27.7,20.4
			C27.7,20.4,27.7,20.3,27.7,20.4l0.2-0.1L27.7,20.4L27.7,20.4z M26.8,16.5l1.9,2c-0.5,0.5-0.8,1-1,1.6h-0.1l0.1-0.1l-0.2,0.2
			l-0.2,0.1v-0.1l-0.3,0.1v0.1l0.2-0.1h0.3l0.3-0.1v0.1l-0.3,0.2h-0.3l-0.4,0.3l-0.4-0.1L26.2,21l-0.4,0.8l0.1,0.2l-0.3,0.4v0.3l0,0
			h-1.2C24.3,20.4,25.1,18.2,26.8,16.5z M24.1,22.9c0,0.4,0.1,0.8,0.1,1.3l-0.1-0.1v0.2H24l-0.1-0.2l-0.2,0.1v0.2L23.2,25h-0.1
			L23,26.3l-0.4,0.2h-0.1l-0.2,0.1H22l0,0c-0.4-1.2-0.6-2.4-0.6-3.6L24.1,22.9L24.1,22.9z M19.6,16.9c0.7-1.7,1.7-3.3,3-4.6l1.9,2
			c-1,1.1-1.8,2.3-2.4,3.7c-0.6,1.5-1,3-1,4.7h-2.7C18.5,20.7,18.9,18.7,19.6,16.9z M19.6,28.6c-0.8-1.8-1-3.7-1.1-5.6h2.7
			c0,1.2,0.2,2.4,0.6,3.6l-0.2,0.1L21,26.4l-0.1,0.1l-0.1-0.1l-0.1,0.1l0.1,0.2h-0.3l-0.2-0.1v-0.2v-0.1h-0.1v0.1v0.1h-0.1L20,26.6
			l0.1,0.1h-0.2l-0.1,0.1h0.1h-0.1V27l0.1,0.1l0.1,0.1h-0.1l0.1,0.2h0.1v0.1l0.1,0.1v0.1l-0.3-0.2l0.1,0.3l-0.2-0.4v0.3L20,28
			l0.1,0.3l0.4,0.8v-0.2l-0.3-0.8V28l0.2-0.3l0.5,0.6l0.1-0.1v-0.4l0.1,0.1l0.2,0.3l0.3,0.1l0.1,0.2h0.1l-0.1-0.2l0.1-0.1l0.1,0.3
			l0.2,0.3h0.2l0.5,0.8l0.3,0.1l0.1-0.3l0.1,0.1l0.4,0.6l0.5,0.1c0.3,0.4,0.6,0.7,0.9,1.1l-1.9,2C21.4,31.8,20.4,30.2,19.6,28.6z
			 M43.4,12.3c1.2,1.3,2.3,2.9,3,4.6c0.8,1.8,1.1,3.8,1.1,5.8h-2.7c0-1.6-0.3-3.2-1-4.7c-0.1-0.1-0.1-0.3-0.2-0.4l0.1-0.1l0.2,0.1
			l0.1-0.2l-0.9-1.5l-0.2-0.1l-1.3-1.6l0,0L43.4,12.3z M39.4,16.4l0.2,0.3l0.1-0.4L39.4,16.4L39.4,16.4l0.7-0.7l0.4,0.4h0.4l0.1,0.2
			v0.3l0.8,0.5h0.2l0.5,0.6l0.1,0.3l0.4,0.4h0.4l0.2-0.4c0.7,1.5,1,3.2,1,4.9h-2.7c0-0.5-0.1-1.1-0.1-1.6l0.1-0.2h0.1l0.1-0.6h-0.1
			v-0.1h-0.3V20v0.2l0.2,0.1h-0.1l-0.1,0.2c-0.1-0.3-0.1-0.5-0.2-0.9l0.2-0.2v-0.3h-0.1l-0.1-0.3l0.1-0.1l-0.1-0.2h-0.3L41,18.5
			c-0.1-0.1-0.1-0.2-0.2-0.3h0.3l-0.3-0.1L41,18v-0.1h-0.1L40.8,18l-0.1-0.1l0.1-0.2l-0.1-0.1l-0.1,0.2l-0.2-0.1
			c-0.1-0.2-0.3-0.4-0.5-0.7V17l0,0C39.8,16.8,39.6,16.6,39.4,16.4z M40.1,21.8l0.4-0.3h0.5l0.1-0.3l0.1-0.1l0.2-0.4l0.1-0.2
			c0,0.1,0,0.1,0,0.2L41.3,21v0.1l-0.1,0.2v0.1L41,21.7v0.2h0.1l0.2-0.4v-0.2h0.1l0,0c0.1,0.4,0.1,0.9,0.1,1.3h-2h-0.1v-0.2l0.2-0.1
			l0.1-0.2H40v-0.1L40.1,21.8z M40.6,18L40.6,18L40.6,18L40.6,18z M39.2,16.5c0.2,0.2,0.4,0.4,0.6,0.7l-0.1,0.1h-0.1l0.2,0.1
			l0.1-0.1c0.1,0.1,0.2,0.2,0.3,0.4h-0.1v0.1h0.1l0.3,0.5h0.1c0,0.1,0.1,0.1,0.1,0.2v0.2l-0.2,0.2l-0.1-0.1h-0.2l0.1,0.2L40.2,19
			l0.3,0.1l0.1,0.2l0.3,0.1v0.1l0.2,0.1v0.4h0.1c0.1,0.2,0.1,0.5,0.2,0.7l-0.1,0.2L41,20.9l-0.1,0.4l-0.4,0.4l-0.1-0.2l0.1-0.5
			l0.2-0.1l-0.6-0.8l-0.3,0.1l-0.3,0.6l-0.3-0.1l-0.1-0.2l0.1-0.1l0.1,0.1h0.1v-0.2l-0.2-0.1v0.1h-0.1l-0.1-0.2l-0.3-0.3l-0.4-0.3
			h-0.4v0.1c-0.2-0.4-0.5-0.7-0.8-1L39.2,16.5z M36.9,18.8l0.2-0.2c0.1,0.1,0.1,0.1,0.2,0.2l-0.2,0.1L36.9,18.8L36.9,18.8L36.9,18.8
			L36.9,18.8z M36.9,20.1l0.2-0.1l-0.3-0.2l0.1-0.2v-0.1l0.3-0.1L37,19.1l-0.3,0.2v0.2l-0.2-0.1h-0.2l-0.1-0.1l0.5-0.5V19h0.4
			l0.1-0.2c0.2,0.2,0.4,0.5,0.5,0.7l-0.2,0.4l-0.3-0.2h-0.1l0.1,0.2l0.1,0.1v0.3v-0.1H36.9z M38.8,28l-0.5,0.4l-0.1,0.1v-0.1H38
			l-0.3,0.2l-0.3-0.1h-0.1l-0.2-0.2H37l-0.3-0.2h-0.2L36.5,28h-0.1l0,0h0.1v-0.2l0.3,0.1l0.1,0.1l0.4,0.1v0.1h0.3l0.4,0.1l0.1,0.2
			h0.2l0.2-0.2l0.1-0.3l0.2-0.6v-0.1l0.1-0.3l0.1-0.3l-0.1-0.1l0.1-0.1l-0.1-0.2v-0.3h-0.3l-0.1,0.2h-0.2v0.3L38,26.8l-0.1-0.1
			l-0.1,0.1h-0.3l0,0c0.1-0.1,0.1-0.2,0.2-0.2h0.1H38l0.1-0.2v-0.1h0.1l0.3-0.4l0.2-0.5l0.6-0.3V25l-0.1-0.1v-0.1l0.2,0.1l0.4,0.1
			l0.3-0.1l0.6-0.1l0.1-0.4l-0.2-0.2h-0.3l-0.4-1h-0.1L39.6,23l0.1-0.1l0,0h1.9c0,2.3-1,4.5-2.5,6.1L39,28.9v-0.1l0.1-0.4L39,27.8
			l-0.1-0.3l-0.1,0.1L38.8,28L38.8,28L38.8,28z M39,32.9l0.1-0.2L39,32.4l0.4-0.3v-0.2l-0.3-0.1l0.3-0.5l0.3-0.5l-0.4-0.4h-0.1H39
			l-0.1-0.3h-0.1l0.1-0.3l0.1-0.2c0.1-0.1,0.1-0.1,0.2-0.2l1.1,1.2l0,0l0,0l0.8,0.8C40.5,31.8,39.8,32.5,39,32.9z M40.9,30.9
			L40.9,30.9l0.1-0.2l-0.1-0.6v-0.2l-0.1-0.3l-0.1-0.1h0.1l-0.1-0.2h-0.3v0.2l-0.1,0.1l0.1,0.2l-0.1,0.3l-0.1,0.1v0.1l-1-1.2
			c1.6-1.7,2.5-3.9,2.5-6.2h2.7c-0.1,3-1.2,6-3.4,8.2L40.9,30.9z M46.4,28.6c-0.8,1.8-1.7,3.4-3.1,4.7l-1.9-2c1-1.1,1.9-2.4,2.5-3.8
			s0.9-3,1-4.6h2.6C47.4,24.9,47,26.8,46.4,28.6z M35.2,33.3L35.2,33.3L35.2,33.3z M39.7,11.4l0.2,0.1l0.4,0.1l0.1,0.2h0.1v-0.3
			l-0.1-0.1v-0.1l-0.2-0.1l-0.1,0.1L40,11.2l0.1-0.1L39.7,11.4z M21.2,29.8L21.2,29.8l-0.1-0.3H21L21.2,29.8L21.2,29.8L21.2,29.8
			l0.1,0.3h0.1L21.3,30L21.2,29.8z M39.3,15.2C39.3,15.2,39.2,15.2,39.3,15.2l0.1,0.2l0.1-0.1L39.3,15.2z M41.6,18.3L41.6,18.3
			l-0.1-0.4h-0.1l0.1,0.2L41.6,18.3z M41,17.3l0.2,0.4l0.1,0.1L41,17.3L41,17.3z M41.8,19.3l0.1,0.2v0.1L42,20h0.1v-0.4L42,19.5
			v-0.4l-0.2-0.5v0.1l0.1,0.3L41.8,19.3z M38.7,19.2L38.7,19.2l-0.2-0.1l-0.1,0.1H38.7L38.7,19.2z M40.9,17L40.9,17L41,17l0.1,0.1
			V17L40.9,17l-0.2-0.3L40.9,17L40.9,17L40.9,17z M39.5,18.2l0.2,0.1h0.2h-0.1v-0.2V18l-0.1-0.1h-0.1l-0.1-0.1l-0.2,0.1l0.3,0.1
			L39.5,18.2L39.5,18.2z M39.2,19L39.2,19L39.2,19l0.2-0.3h-0.1l-0.1,0.1l-0.1-0.3L39,18.6l0.1,0.2L39,18.9h-0.1L38.9,19v0.2
			L39.2,19z M39.2,18.2V18V18.2L39.2,18.2L39.2,18.2z"/>
		<path id="_x36_867db83eafd21b611f84c2893ce4ba4" class="st7" d="M34,30.4c0,0.3,0,0.6,0,1c0.8,0.4,1.4,0.9,1.7,2
			C35.7,31.5,34.9,30.8,34,30.4z M30.3,12.6c0.4-0.5,0.9-0.9,1.3-1.1c0-0.6,0-1.2,0-1.7c-1,0.2-1.4,0.6-1.6,0.6
			c-0.6,0.2-1.2,0.1-2,1c-0.1,0.2-0.5,0.6-0.7,1S27,13,26.9,13.4c-0.3,0.4-0.2,0.7-0.2,0.7v0.1c0,0.1-0.1,0.3-0.3,0.4
			c-0.3,0.3-0.6,0.5-1,0.4c0.4,0.2,0.9-0.1,0.9-0.1s-0.1,0.4-0.1,0.9c0.4-0.8,0.7-1.2,0.9-1.3c0.2,0,0.5,0,1.1-0.4
			C28.9,13.8,30,13,30.3,12.6z M28.9,12.2l-0.6,0.7h-0.3l0.1-0.3l0.6-0.5h0.5L28.9,12.2z M34.3,9.7c0,0.5,0,1,0,1.6
			c0.2,0,0.4,0.1,0.5,0.1c1.5,0.4,2.2,1.3,2.3,2.2c0,0.9-0.8,2-2.3,2.5c-0.2,0-0.4,0.1-0.6,0.1l0,0l-0.3,0.1
			c-0.3,0.1-0.6,0.1-0.9,0.2c-0.2,0.1-0.5,0.1-0.7,0.2l-0.5,0.1c-0.4,0.1-0.7,0.2-1,0.3c-1.7,0.8-2.4,2.4-2,4c0.2,1,0.8,1.7,2.2,2.2
			c0.3,0.1,0.6,0.2,0.9,0.3v-1.9c-0.4-0.2-0.7-0.3-0.9-0.6c-0.6-0.8-0.5-1.8,0.9-2.3l0,0h0.1l0,0c0.1,0,0.1,0,0.2,0h0.1
			c0.1,0,0.4-0.1,0.7-0.2c0.3-0.1,0.7-0.2,1-0.3h0.1c1-0.2,1.8-0.5,2.6-0.9c1.3-0.7,2.5-1.9,2.4-4C39,11.9,37.6,9.9,34.3,9.7z
			 M35.8,23.5c-0.6-0.4-1.2-0.7-1.7-0.9c0,0.8,0,1.4,0,1.8c0.6,0.3,1,0.6,1,1c0,0.4-0.4,0.7-1,1h-0.2c-0.2,0.1-0.3,0.1-0.5,0.2
			c-0.1,0.1-0.4,0.1-0.6,0.2l0,0c-0.1,0.1-0.3,0.1-0.4,0.1c0,0-0.1,0-0.1,0.1C31,27.6,31,28.5,31,29.1c0.1,0.6,0.5,1,1,1.3
			c0-0.7,0-1.2,0-1.2c0-0.3,0.2-0.6,0.5-0.7c0.2-0.2,0.5-0.3,0.9-0.5c0.6-0.2,1-0.4,1.8-0.7C37.3,26.6,37.3,24.8,35.8,23.5z
			 M32.3,16.2c0.5-0.1,1-0.2,1.5-0.4c0-0.6,0.2-7.6,0.2-8c0.1-1,1-3.8-1-3.8c-1.9,0-1,3-0.9,3.9C32.2,8.4,32.3,15.5,32.3,16.2z
			 M32.6,29.3c0,0.2,0.1,6.1,0.2,6.7c0.1,1.5,0.6,1.5,0.7,0.1c0-0.4,0.2-7.4,0.2-7.6C33,28.7,32.6,29,32.6,29.3z M32.9,26.4
			c0.3-0.1,0.5-0.2,0.6-0.2c0-0.1,0.1-7,0.1-7.4c-0.3,0-1,0.3-1.3,0.4c0,0.2,0.1,7.4,0.1,7.4S32.8,26.5,32.9,26.4z"/>
	</g>
</g>
<g id="Livello_1" class="st5">
</g>
</svg>
