<?xml version="1.0" encoding="utf-8"?>
<!-- Generator: Adobe Illustrator 25.3.1, SVG Export Plug-In . SVG Version: 6.00 Build 0)  -->
<svg version="1.1" id="Livello_1" xmlns="http://www.w3.org/2000/svg" xmlns:xlink="http://www.w3.org/1999/xlink" x="0px" y="0px"
	 viewBox="0 0 158 54" style="enable-background:new 0 0 158 54;" xml:space="preserve">
<style type="text/css">
	.st0{fill:#1B6645;}
</style>
<g>
	<path id="_x33_74e4238794a47950eb5f15a59c066e3" class="st0" d="M64.7,35.1c-1.2,0.6-2.5,1-3.8,1.3c-1.3,0.3-2.7,0.4-4.1,0.4
		c-3.2,0-5.7-0.9-7.5-2.6c-1.8-1.8-2.8-4.2-2.8-7.2c0-3.1,0.9-5.5,2.8-7.2c1.9-1.8,4.5-2.6,7.7-2.6c1.3,0,2.5,0.1,3.6,0.4
		c1.2,0.2,2.3,0.6,3.3,1.1v3.9c-1.1-0.6-2.1-1-3.2-1.3c-1-0.3-2.1-0.4-3.1-0.4c-1.9,0-3.4,0.5-4.5,1.6c-1,1.1-1.6,2.6-1.6,4.7
		c0,2,0.5,3.6,1.5,4.6c1,1.1,2.5,1.6,4.3,1.6c0.5,0,1,0,1.4-0.1c0.4-0.1,0.8-0.2,1.2-0.3v-3.7h-3v-3.3h7.6V35.1z M81.2,18.1v4
		c-1-0.5-2.1-0.8-3-1.1c-1-0.2-1.9-0.4-2.8-0.4c-1.2,0-2,0.2-2.6,0.5c-0.6,0.3-0.8,0.8-0.8,1.5c0,0.5,0.2,0.9,0.6,1.2
		c0.4,0.3,1.1,0.5,2.1,0.7l2.1,0.4c2.1,0.4,3.6,1.1,4.5,1.9c0.9,0.9,1.3,2.1,1.3,3.7c0,2.1-0.6,3.6-1.9,4.7c-1.2,1-3.1,1.5-5.7,1.5
		c-1.2,0-2.4-0.1-3.6-0.3s-2.4-0.6-3.6-1v-4.1c1.2,0.6,2.4,1.1,3.5,1.5c1.1,0.3,2.2,0.5,3.3,0.5c1.1,0,1.9-0.2,2.5-0.5
		c0.6-0.4,0.9-0.9,0.9-1.5c0-0.6-0.2-1-0.6-1.4c-0.4-0.3-1.1-0.6-2.3-0.9L73,28.6c-1.9-0.4-3.3-1.1-4.2-1.9
		c-0.9-0.9-1.3-2.1-1.3-3.6c0-1.9,0.6-3.3,1.8-4.4c1.2-1,3-1.5,5.3-1.5c1,0,2.1,0.1,3.2,0.2C78.9,17.6,80,17.8,81.2,18.1z
		 M85.8,17.5h4.9v7.2h7.2v-7.2h4.9v19h-4.9v-8h-7.2v8h-4.9V17.5z M106.5,17.5h4.9v19h-4.9V17.5z"/>
</g>
</svg>
