<?xml version="1.0" encoding="utf-8"?>
<!-- Generator: Adobe Illustrator 26.2.1, SVG Export Plug-In . SVG Version: 6.00 Build 0)  -->
<svg version="1.1" id="Livello_1" xmlns="http://www.w3.org/2000/svg" xmlns:xlink="http://www.w3.org/1999/xlink" x="0px" y="0px"
	 viewBox="0 0 158 50" style="enable-background:new 0 0 158 50;" xml:space="preserve">
<style type="text/css">
	.st0{fill:none;}
	.st1{fill:#939393;}
	.st2{font-family:'FrutigerLTStd-Bold';}
	.st3{font-size:11px;}
	.st4{fill:#36499B;}
	.st5{fill:#FFEC00;}
</style>
<g id="JRC">
	<g>
		<rect x="60" class="st0" width="88" height="50"/>
		<text transform="matrix(0.9 0 0 1 59.9317 22.6248)" class="st1 st2 st3">JOINTH RESEARCH </text>
		<text transform="matrix(0.9 0 0 1 59.9317 35.6248)" class="st1 st2 st3">CENTER</text>
	</g>
	<polygon class="st4" points="54,40 54,10 12,10 12,40 	"/>
	<g>
		<polygon class="st5" points="33.4,13.6 35.1,13.6 33.8,14.7 34.3,16.4 32.9,15.4 31.6,16.4 32.1,14.7 30.7,13.6 32.4,13.6 
			32.9,12 		"/>
		<polygon class="st5" points="33.4,35.4 35.2,35.4 33.8,36.4 34.3,38 33,37 31.6,38 32.1,36.4 30.7,35.4 32.5,35.4 33,33.8 		"/>
		<polygon class="st5" points="38.9,33.9 40.5,33.9 39.2,35 39.7,36.6 38.3,35.5 37,36.6 37.5,35 36.1,33.9 37.8,33.9 38.3,32.4 		
			"/>
		<polygon class="st5" points="38.9,15.1 40.5,15.1 39.2,16.1 39.7,17.7 38.3,16.8 37,17.7 37.5,16.1 36.1,15.1 37.8,15.1 
			38.3,13.5 		"/>
		<polygon class="st5" points="42.8,19 44.5,19 43.1,20.1 43.6,21.8 42.3,20.8 40.9,21.8 41.5,20.1 40.2,19 41.8,19 42.3,17.5 		"/>
		<polygon class="st5" points="42.8,30 44.5,30 43.1,31 43.6,32.6 42.3,31.6 40.9,32.6 41.5,31 40.2,30 41.8,30 42.3,28.4 		"/>
		<polygon class="st5" points="44.3,24.5 46,24.5 44.6,25.4 45.1,27.1 43.8,26.1 42.4,27.1 43,25.4 41.6,24.5 43.3,24.5 43.8,22.8 
					"/>
		<polygon class="st5" points="27.9,15.1 29.6,15.1 28.2,16.1 28.8,17.7 27.5,16.8 26.1,17.7 26.6,16.1 25.3,15.1 26.9,15.1 
			27.5,13.5 		"/>
		<polygon class="st5" points="24.1,19 25.7,19 24.4,20.1 25,21.8 23.6,20.8 22.3,21.8 22.8,20.1 21.4,19 23,19 23.6,17.5 		"/>
		<polygon class="st5" points="22.7,24.5 24.3,24.5 23,25.4 23.5,27.1 22.2,26.1 20.8,27.1 21.3,25.4 20,24.5 21.6,24.5 22.2,22.8 
					"/>
		<polygon class="st5" points="24.1,30 25.7,30 24.4,31.1 25,32.7 23.6,31.6 22.3,32.7 22.8,31.1 21.4,30 23,30 23.6,28.5 		"/>
		<polygon class="st5" points="28,33.9 29.8,33.9 28.3,35 28.9,36.6 27.5,35.6 26.2,36.6 26.7,35 25.3,33.9 27,33.9 27.5,32.4 		"/>
	</g>
</g>
</svg>
